<?xml version="1.0" encoding="UTF-8" standalone="no"?>
<!DOCTYPE svg PUBLIC "-//W3C//DTD SVG 1.1//EN"
 "http://www.w3.org/Graphics/SVG/1.1/DTD/svg11.dtd">
<!-- Generated by graphviz version 2.44.1 (20200629.0800)
 -->
<!-- Pages: 1 -->
<svg width="1893pt" height="1171pt"
 viewBox="0.00 0.00 1893.00 1171.00" xmlns="http://www.w3.org/2000/svg" xmlns:xlink="http://www.w3.org/1999/xlink">
<g id="graph0" class="graph" transform="scale(1 1) rotate(0) translate(4 1167)">
<polygon fill="white" stroke="transparent" points="-4,4 -4,-1167 1889,-1167 1889,4 -4,4"/>
<!-- ACP0900 -->
<g id="node1" class="node">
<title>ACP0900</title>
<polygon fill="none" stroke="black" points="1832.5,-38 1659.5,-38 1659.5,0 1832.5,0 1832.5,-38"/>
<text text-anchor="middle" x="1746" y="-22.8" font-family="Times New Roman,serif" font-size="14.00">ACP0900</text>
<text text-anchor="middle" x="1746" y="-7.8" font-family="Times New Roman,serif" font-size="14.00">Atividades Complementares</text>
</g>
<!-- ELL0900 -->
<g id="node2" class="node">
<title>ELL0900</title>
<polygon fill="none" stroke="black" points="1885,-94 1607,-94 1607,-56 1885,-56 1885,-94"/>
<text text-anchor="middle" x="1746" y="-78.8" font-family="Times New Roman,serif" font-size="14.00">ELL0900</text>
<text text-anchor="middle" x="1746" y="-63.8" font-family="Times New Roman,serif" font-size="14.00">Eletivas Livres &#45; Dentro/Fora do Departamento</text>
</g>
<!-- INF0378 -->
<g id="node3" class="node">
<title>INF0378</title>
<polygon fill="none" stroke="black" points="1868,-150 1624,-150 1624,-112 1868,-112 1868,-150"/>
<text text-anchor="middle" x="1746" y="-134.8" font-family="Times New Roman,serif" font-size="14.00">INF0378</text>
<text text-anchor="middle" x="1746" y="-119.8" font-family="Times New Roman,serif" font-size="14.00">Optativas de Formação em Computação</text>
</g>
<!-- INF0379 -->
<g id="node4" class="node">
<title>INF0379</title>
<polygon fill="none" stroke="black" points="1827.5,-206 1664.5,-206 1664.5,-168 1827.5,-168 1827.5,-206"/>
<text text-anchor="middle" x="1746" y="-190.8" font-family="Times New Roman,serif" font-size="14.00">INF0379</text>
<text text-anchor="middle" x="1746" y="-175.8" font-family="Times New Roman,serif" font-size="14.00">Optativas de Computação</text>
</g>
<!-- INF0381 -->
<g id="node5" class="node">
<title>INF0381</title>
<polygon fill="none" stroke="black" points="1862,-262 1630,-262 1630,-224 1862,-224 1862,-262"/>
<text text-anchor="middle" x="1746" y="-246.8" font-family="Times New Roman,serif" font-size="14.00">INF0381</text>
<text text-anchor="middle" x="1746" y="-231.8" font-family="Times New Roman,serif" font-size="14.00">Optativas de Direito para Computação</text>
</g>
<!-- INF1951 -->
<g id="node6" class="node">
<title>INF1951</title>
<polygon fill="none" stroke="black" points="1796.5,-318 1695.5,-318 1695.5,-280 1796.5,-280 1796.5,-318"/>
<text text-anchor="middle" x="1746" y="-302.8" font-family="Times New Roman,serif" font-size="14.00">INF1951</text>
<text text-anchor="middle" x="1746" y="-287.8" font-family="Times New Roman,serif" font-size="14.00">Projeto Final II</text>
</g>
<!-- CRE1175 -->
<g id="node7" class="node">
<title>CRE1175</title>
<polygon fill="none" stroke="black" points="1567.5,-374 1329.5,-374 1329.5,-336 1567.5,-336 1567.5,-374"/>
<text text-anchor="middle" x="1448.5" y="-358.8" font-family="Times New Roman,serif" font-size="14.00">CRE1175</text>
<text text-anchor="middle" x="1448.5" y="-343.8" font-family="Times New Roman,serif" font-size="14.00">Ética Socioambiental Direitos Humanos</text>
</g>
<!-- FIL0300 -->
<g id="node8" class="node">
<title>FIL0300</title>
<polygon fill="none" stroke="black" points="1550,-477 1347,-477 1347,-439 1550,-439 1550,-477"/>
<text text-anchor="middle" x="1448.5" y="-461.8" font-family="Times New Roman,serif" font-size="14.00">FIL0300</text>
<text text-anchor="middle" x="1448.5" y="-446.8" font-family="Times New Roman,serif" font-size="14.00">Optativas de Filosofia &#45; CB/CTC</text>
</g>
<!-- INF1950 -->
<g id="node9" class="node">
<title>INF1950</title>
<polygon fill="none" stroke="black" points="1496.5,-318 1400.5,-318 1400.5,-280 1496.5,-280 1496.5,-318"/>
<text text-anchor="middle" x="1448.5" y="-302.8" font-family="Times New Roman,serif" font-size="14.00">INF1950</text>
<text text-anchor="middle" x="1448.5" y="-287.8" font-family="Times New Roman,serif" font-size="14.00">Projeto Final I</text>
</g>
<!-- INF1950&#45;&gt;INF1951 -->
<g id="edge31" class="edge">
<title>INF1950&#45;&gt;INF1951</title>
<path fill="none" stroke="black" d="M1496.65,-299C1547.73,-299 1629.36,-299 1684.99,-299"/>
<polygon fill="black" stroke="black" points="1685.06,-302.5 1695.06,-299 1685.06,-295.5 1685.06,-302.5"/>
</g>
<!-- INF1014 -->
<g id="node10" class="node">
<title>INF1014</title>
<polygon fill="none" stroke="black" points="1487.5,-627 1409.5,-627 1409.5,-589 1487.5,-589 1487.5,-627"/>
<text text-anchor="middle" x="1448.5" y="-611.8" font-family="Times New Roman,serif" font-size="14.00">INF1014</text>
<text text-anchor="middle" x="1448.5" y="-596.8" font-family="Times New Roman,serif" font-size="14.00">Seminários</text>
</g>
<!-- INF1033 -->
<g id="node11" class="node">
<title>INF1033</title>
<polygon fill="none" stroke="black" points="1571,-730 1326,-730 1326,-692 1571,-692 1571,-730"/>
<text text-anchor="middle" x="1448.5" y="-714.8" font-family="Times New Roman,serif" font-size="14.00">INF1033</text>
<text text-anchor="middle" x="1448.5" y="-699.8" font-family="Times New Roman,serif" font-size="14.00">Estágio Supervisionado em Computação</text>
</g>
<!-- CRE1141 -->
<g id="node12" class="node">
<title>CRE1141</title>
<polygon fill="none" stroke="black" points="1211,-374 1130,-374 1130,-336 1211,-336 1211,-374"/>
<text text-anchor="middle" x="1170.5" y="-358.8" font-family="Times New Roman,serif" font-size="14.00">CRE1141</text>
<text text-anchor="middle" x="1170.5" y="-343.8" font-family="Times New Roman,serif" font-size="14.00">Ética Crista</text>
</g>
<!-- CRE1141&#45;&gt;CRE1175 -->
<g id="edge30" class="edge">
<title>CRE1141&#45;&gt;CRE1175</title>
<path fill="none" stroke="black" d="M1211.04,-355C1239.5,-355 1279.62,-355 1318.74,-355"/>
<polygon fill="black" stroke="black" points="1319.2,-358.5 1329.2,-355 1319.2,-351.5 1319.2,-358.5"/>
</g>
<!-- INF0377 -->
<g id="node13" class="node">
<title>INF0377</title>
<polygon fill="none" stroke="black" points="1290,-552 1051,-552 1051,-514 1290,-514 1290,-552"/>
<text text-anchor="middle" x="1170.5" y="-536.8" font-family="Times New Roman,serif" font-size="14.00">INF0377</text>
<text text-anchor="middle" x="1170.5" y="-521.8" font-family="Times New Roman,serif" font-size="14.00">Optativas de Probabilidade e Estatística</text>
</g>
<!-- INF1022 -->
<g id="node14" class="node">
<title>INF1022</title>
<polygon fill="none" stroke="black" points="1273,-1035 1068,-1035 1068,-997 1273,-997 1273,-1035"/>
<text text-anchor="middle" x="1170.5" y="-1019.8" font-family="Times New Roman,serif" font-size="14.00">INF1022</text>
<text text-anchor="middle" x="1170.5" y="-1004.8" font-family="Times New Roman,serif" font-size="14.00">Analisadores Léxicos e Sintáticos</text>
</g>
<!-- INF1028 -->
<g id="node15" class="node">
<title>INF1028</title>
<polygon fill="none" stroke="black" points="1265,-730 1076,-730 1076,-692 1265,-692 1265,-730"/>
<text text-anchor="middle" x="1170.5" y="-714.8" font-family="Times New Roman,serif" font-size="14.00">INF1028</text>
<text text-anchor="middle" x="1170.5" y="-699.8" font-family="Times New Roman,serif" font-size="14.00">Projeto e Construção Sistemas</text>
</g>
<!-- INF1028&#45;&gt;INF1033 -->
<g id="edge29" class="edge">
<title>INF1028&#45;&gt;INF1033</title>
<path fill="none" stroke="black" d="M1265.33,-711C1281.37,-711 1298.31,-711 1315.14,-711"/>
<polygon fill="black" stroke="black" points="1315.59,-714.5 1325.59,-711 1315.59,-707.5 1315.59,-714.5"/>
</g>
<!-- INF1317 -->
<g id="node16" class="node">
<title>INF1317</title>
<polygon fill="none" stroke="black" points="1248.5,-880 1092.5,-880 1092.5,-842 1248.5,-842 1248.5,-880"/>
<text text-anchor="middle" x="1170.5" y="-864.8" font-family="Times New Roman,serif" font-size="14.00">INF1317</text>
<text text-anchor="middle" x="1170.5" y="-849.8" font-family="Times New Roman,serif" font-size="14.00">Redes de Computadores</text>
</g>
<!-- INF1721 -->
<g id="node17" class="node">
<title>INF1721</title>
<polygon fill="none" stroke="black" points="1240.5,-965 1100.5,-965 1100.5,-927 1240.5,-927 1240.5,-965"/>
<text text-anchor="middle" x="1170.5" y="-949.8" font-family="Times New Roman,serif" font-size="14.00">INF1721</text>
<text text-anchor="middle" x="1170.5" y="-934.8" font-family="Times New Roman,serif" font-size="14.00">Análise de Algoritmos</text>
</g>
<!-- CRE0710 -->
<g id="node18" class="node">
<title>CRE0710</title>
<polygon fill="none" stroke="black" points="966.5,-374 805.5,-374 805.5,-336 966.5,-336 966.5,-374"/>
<text text-anchor="middle" x="886" y="-358.8" font-family="Times New Roman,serif" font-size="14.00">CRE0710</text>
<text text-anchor="middle" x="886" y="-343.8" font-family="Times New Roman,serif" font-size="14.00">Optativas de Cristianismo</text>
</g>
<!-- CRE0710&#45;&gt;CRE1141 -->
<g id="edge18" class="edge">
<title>CRE0710&#45;&gt;CRE1141</title>
<path fill="none" stroke="black" d="M966.82,-355C1015.96,-355 1077.42,-355 1119.7,-355"/>
<polygon fill="black" stroke="black" points="1119.75,-358.5 1129.75,-355 1119.75,-351.5 1119.75,-358.5"/>
</g>
<!-- INF1027 -->
<g id="node19" class="node">
<title>INF1027</title>
<polygon fill="none" stroke="black" points="979,-618 793,-618 793,-580 979,-580 979,-618"/>
<text text-anchor="middle" x="886" y="-602.8" font-family="Times New Roman,serif" font-size="14.00">INF1027</text>
<text text-anchor="middle" x="886" y="-587.8" font-family="Times New Roman,serif" font-size="14.00">Testes e Medidas de Software</text>
</g>
<!-- INF1027&#45;&gt;INF1028 -->
<g id="edge23" class="edge">
<title>INF1027&#45;&gt;INF1028</title>
<path fill="none" stroke="black" d="M979.16,-615.87C991.37,-619.05 1003.6,-622.75 1015,-627 1056.92,-642.62 1101.47,-667.88 1131.91,-686.63"/>
<polygon fill="black" stroke="black" points="1130.15,-689.66 1140.49,-691.97 1133.85,-683.72 1130.15,-689.66"/>
</g>
<!-- INF1029 -->
<g id="node20" class="node">
<title>INF1029</title>
<polygon fill="none" stroke="black" points="1015,-824 757,-824 757,-786 1015,-786 1015,-824"/>
<text text-anchor="middle" x="886" y="-808.8" font-family="Times New Roman,serif" font-size="14.00">INF1029</text>
<text text-anchor="middle" x="886" y="-793.8" font-family="Times New Roman,serif" font-size="14.00">Introdução à Arquitetura de Computadores</text>
</g>
<!-- INF1316 -->
<g id="node21" class="node">
<title>INF1316</title>
<polygon fill="none" stroke="black" points="957.5,-880 814.5,-880 814.5,-842 957.5,-842 957.5,-880"/>
<text text-anchor="middle" x="886" y="-864.8" font-family="Times New Roman,serif" font-size="14.00">INF1316</text>
<text text-anchor="middle" x="886" y="-849.8" font-family="Times New Roman,serif" font-size="14.00">Sistemas Operacionais</text>
</g>
<!-- INF1316&#45;&gt;INF1317 -->
<g id="edge26" class="edge">
<title>INF1316&#45;&gt;INF1317</title>
<path fill="none" stroke="black" d="M957.56,-861C995.37,-861 1042.3,-861 1082.37,-861"/>
<polygon fill="black" stroke="black" points="1082.4,-864.5 1092.4,-861 1082.4,-857.5 1082.4,-864.5"/>
</g>
<!-- INF1629 -->
<g id="node22" class="node">
<title>INF1629</title>
<polygon fill="none" stroke="black" points="999.5,-674 772.5,-674 772.5,-636 999.5,-636 999.5,-674"/>
<text text-anchor="middle" x="886" y="-658.8" font-family="Times New Roman,serif" font-size="14.00">INF1629</text>
<text text-anchor="middle" x="886" y="-643.8" font-family="Times New Roman,serif" font-size="14.00">Princípios de Engenharia de Software</text>
</g>
<!-- INF1636 -->
<g id="node23" class="node">
<title>INF1636</title>
<polygon fill="none" stroke="black" points="984.5,-730 787.5,-730 787.5,-692 984.5,-692 984.5,-730"/>
<text text-anchor="middle" x="886" y="-714.8" font-family="Times New Roman,serif" font-size="14.00">INF1636</text>
<text text-anchor="middle" x="886" y="-699.8" font-family="Times New Roman,serif" font-size="14.00">Programação Orientada Objetos</text>
</g>
<!-- INF1636&#45;&gt;INF1028 -->
<g id="edge25" class="edge">
<title>INF1636&#45;&gt;INF1028</title>
<path fill="none" stroke="black" d="M984.62,-711C1010.78,-711 1039.15,-711 1065.64,-711"/>
<polygon fill="black" stroke="black" points="1065.69,-714.5 1075.69,-711 1065.69,-707.5 1065.69,-714.5"/>
</g>
<!-- INF1383 -->
<g id="node24" class="node">
<title>INF1383</title>
<polygon fill="none" stroke="black" points="678,-777 568,-777 568,-739 678,-739 678,-777"/>
<text text-anchor="middle" x="623" y="-761.8" font-family="Times New Roman,serif" font-size="14.00">INF1383</text>
<text text-anchor="middle" x="623" y="-746.8" font-family="Times New Roman,serif" font-size="14.00">Banco de Dados</text>
</g>
<!-- INF1383&#45;&gt;INF1028 -->
<g id="edge24" class="edge">
<title>INF1383&#45;&gt;INF1028</title>
<path fill="none" stroke="black" d="M678.26,-757.6C753.92,-756.53 895.32,-752.69 1015,-739 1031.53,-737.11 1048.95,-734.53 1065.91,-731.69"/>
<polygon fill="black" stroke="black" points="1066.56,-735.13 1075.83,-730 1065.39,-728.23 1066.56,-735.13"/>
</g>
<!-- INF1631 -->
<g id="node25" class="node">
<title>INF1631</title>
<polygon fill="none" stroke="black" points="687,-1009 559,-1009 559,-971 687,-971 687,-1009"/>
<text text-anchor="middle" x="623" y="-993.8" font-family="Times New Roman,serif" font-size="14.00">INF1631</text>
<text text-anchor="middle" x="623" y="-978.8" font-family="Times New Roman,serif" font-size="14.00">Estruturas Discretas</text>
</g>
<!-- INF1631&#45;&gt;INF1721 -->
<g id="edge28" class="edge">
<title>INF1631&#45;&gt;INF1721</title>
<path fill="none" stroke="black" d="M687.11,-984.91C786.82,-976.87 980.66,-961.23 1089.82,-952.43"/>
<polygon fill="black" stroke="black" points="1090.42,-955.89 1100.11,-951.6 1089.86,-948.91 1090.42,-955.89"/>
</g>
<!-- INF1010 -->
<g id="node26" class="node">
<title>INF1010</title>
<polygon fill="none" stroke="black" points="721,-909 525,-909 525,-871 721,-871 721,-909"/>
<text text-anchor="middle" x="623" y="-893.8" font-family="Times New Roman,serif" font-size="14.00">INF1010</text>
<text text-anchor="middle" x="623" y="-878.8" font-family="Times New Roman,serif" font-size="14.00">Estruturas de Dados Avançadas</text>
</g>
<!-- INF1010&#45;&gt;INF1721 -->
<g id="edge27" class="edge">
<title>INF1010&#45;&gt;INF1721</title>
<path fill="none" stroke="black" d="M721.21,-899.98C826.53,-910.79 992.56,-927.84 1090.27,-937.87"/>
<polygon fill="black" stroke="black" points="1090.07,-941.36 1100.38,-938.9 1090.79,-934.4 1090.07,-941.36"/>
</g>
<!-- INF1301 -->
<g id="node27" class="node">
<title>INF1301</title>
<polygon fill="none" stroke="black" points="694,-698 552,-698 552,-660 694,-660 694,-698"/>
<text text-anchor="middle" x="623" y="-682.8" font-family="Times New Roman,serif" font-size="14.00">INF1301</text>
<text text-anchor="middle" x="623" y="-667.8" font-family="Times New Roman,serif" font-size="14.00">Programação Modular</text>
</g>
<!-- INF1301&#45;&gt;INF1027 -->
<g id="edge13" class="edge">
<title>INF1301&#45;&gt;INF1027</title>
<path fill="none" stroke="black" d="M667.72,-659.9C693.38,-649.2 726.63,-636.2 757,-627 765.38,-624.46 774.14,-622.05 782.97,-619.79"/>
<polygon fill="black" stroke="black" points="784.1,-623.12 792.95,-617.31 782.4,-616.33 784.1,-623.12"/>
</g>
<!-- INF1301&#45;&gt;INF1629 -->
<g id="edge16" class="edge">
<title>INF1301&#45;&gt;INF1629</title>
<path fill="none" stroke="black" d="M694.29,-672.54C715.29,-670.61 738.96,-668.43 762.3,-666.28"/>
<polygon fill="black" stroke="black" points="762.64,-669.77 772.27,-665.37 762,-662.8 762.64,-669.77"/>
</g>
<!-- INF1301&#45;&gt;INF1636 -->
<g id="edge17" class="edge">
<title>INF1301&#45;&gt;INF1636</title>
<path fill="none" stroke="black" d="M694.29,-687.62C719.7,-690.73 749.02,-694.33 776.93,-697.75"/>
<polygon fill="black" stroke="black" points="776.78,-701.26 787.13,-699 777.63,-694.31 776.78,-701.26"/>
</g>
<!-- INF1018 -->
<g id="node28" class="node">
<title>INF1018</title>
<polygon fill="none" stroke="black" points="677.5,-845 568.5,-845 568.5,-807 677.5,-807 677.5,-845"/>
<text text-anchor="middle" x="623" y="-829.8" font-family="Times New Roman,serif" font-size="14.00">INF1018</text>
<text text-anchor="middle" x="623" y="-814.8" font-family="Times New Roman,serif" font-size="14.00">Software Básico</text>
</g>
<!-- INF1018&#45;&gt;INF1029 -->
<g id="edge14" class="edge">
<title>INF1018&#45;&gt;INF1029</title>
<path fill="none" stroke="black" d="M677.76,-821.67C698.09,-820.04 722.27,-818.09 746.82,-816.12"/>
<polygon fill="black" stroke="black" points="747.29,-819.59 756.98,-815.3 746.73,-812.61 747.29,-819.59"/>
</g>
<!-- INF1018&#45;&gt;INF1316 -->
<g id="edge15" class="edge">
<title>INF1018&#45;&gt;INF1316</title>
<path fill="none" stroke="black" d="M677.76,-833.21C714.3,-838.11 763.27,-844.68 804.44,-850.2"/>
<polygon fill="black" stroke="black" points="804.08,-853.68 814.45,-851.54 805.01,-846.74 804.08,-853.68"/>
</g>
<!-- MAT1162 -->
<g id="node29" class="node">
<title>MAT1162</title>
<polygon fill="none" stroke="black" points="708.5,-486 537.5,-486 537.5,-448 708.5,-448 708.5,-486"/>
<text text-anchor="middle" x="623" y="-470.8" font-family="Times New Roman,serif" font-size="14.00">MAT1162</text>
<text text-anchor="middle" x="623" y="-455.8" font-family="Times New Roman,serif" font-size="14.00">Cálculo a Várias Variáveis I</text>
</g>
<!-- CRE1100 -->
<g id="node30" class="node">
<title>CRE1100</title>
<polygon fill="none" stroke="black" points="474,-374 256,-374 256,-336 474,-336 474,-374"/>
<text text-anchor="middle" x="365" y="-358.8" font-family="Times New Roman,serif" font-size="14.00">CRE1100</text>
<text text-anchor="middle" x="365" y="-343.8" font-family="Times New Roman,serif" font-size="14.00">O Humano e o Fenômeno Religioso</text>
</g>
<!-- CRE1100&#45;&gt;CRE0710 -->
<g id="edge12" class="edge">
<title>CRE1100&#45;&gt;CRE0710</title>
<path fill="none" stroke="black" d="M474.17,-355C569.28,-355 706.09,-355 795.25,-355"/>
<polygon fill="black" stroke="black" points="795.34,-358.5 805.34,-355 795.34,-351.5 795.34,-358.5"/>
</g>
<!-- INF0380 -->
<g id="node31" class="node">
<title>INF0380</title>
<polygon fill="none" stroke="black" points="489,-1107 241,-1107 241,-1069 489,-1069 489,-1107"/>
<text text-anchor="middle" x="365" y="-1091.8" font-family="Times New Roman,serif" font-size="14.00">INF0380</text>
<text text-anchor="middle" x="365" y="-1076.8" font-family="Times New Roman,serif" font-size="14.00">Optativas de Comp e Produção de Texto</text>
</g>
<!-- INF1403 -->
<g id="node32" class="node">
<title>INF1403</title>
<polygon fill="none" stroke="black" points="456,-1163 274,-1163 274,-1125 456,-1125 456,-1163"/>
<text text-anchor="middle" x="365" y="-1147.8" font-family="Times New Roman,serif" font-size="14.00">INF1403</text>
<text text-anchor="middle" x="365" y="-1132.8" font-family="Times New Roman,serif" font-size="14.00">Intr Int Humano&#45;Computador</text>
</g>
<!-- INF1007 -->
<g id="node33" class="node">
<title>INF1007</title>
<polygon fill="none" stroke="black" points="417,-845 313,-845 313,-807 417,-807 417,-845"/>
<text text-anchor="middle" x="365" y="-829.8" font-family="Times New Roman,serif" font-size="14.00">INF1007</text>
<text text-anchor="middle" x="365" y="-814.8" font-family="Times New Roman,serif" font-size="14.00">Programação II</text>
</g>
<!-- INF1007&#45;&gt;INF1022 -->
<g id="edge21" class="edge">
<title>INF1007&#45;&gt;INF1022</title>
<path fill="none" stroke="black" d="M391.8,-845.04C422.08,-866.38 474.6,-900.3 525,-918 621,-951.71 900.08,-986.41 1057.71,-1004.08"/>
<polygon fill="black" stroke="black" points="1057.59,-1007.59 1067.91,-1005.22 1058.36,-1000.63 1057.59,-1007.59"/>
</g>
<!-- INF1007&#45;&gt;INF1383 -->
<g id="edge4" class="edge">
<title>INF1007&#45;&gt;INF1383</title>
<path fill="none" stroke="black" d="M417.19,-812.4C457.67,-801.65 514.4,-786.58 557.9,-775.03"/>
<polygon fill="black" stroke="black" points="559.04,-778.35 567.81,-772.4 557.24,-771.58 559.04,-778.35"/>
</g>
<!-- INF1007&#45;&gt;INF1631 -->
<g id="edge6" class="edge">
<title>INF1007&#45;&gt;INF1631</title>
<path fill="none" stroke="black" d="M384.38,-845.03C412.38,-873.05 468.45,-925.48 525,-957 532.68,-961.28 541,-965.14 549.44,-968.57"/>
<polygon fill="black" stroke="black" points="548.4,-971.92 558.99,-972.28 550.93,-965.4 548.4,-971.92"/>
</g>
<!-- INF1007&#45;&gt;INF1010 -->
<g id="edge8" class="edge">
<title>INF1007&#45;&gt;INF1010</title>
<path fill="none" stroke="black" d="M417.19,-838.8C451.09,-847.27 496.39,-858.6 535.77,-868.44"/>
<polygon fill="black" stroke="black" points="535.09,-871.88 545.64,-870.91 536.79,-865.09 535.09,-871.88"/>
</g>
<!-- INF1007&#45;&gt;INF1301 -->
<g id="edge9" class="edge">
<title>INF1007&#45;&gt;INF1301</title>
<path fill="none" stroke="black" d="M396.46,-806.87C428.23,-787.1 479.64,-755.59 525,-730 541.21,-720.86 559.19,-711.26 575.22,-702.88"/>
<polygon fill="black" stroke="black" points="577.15,-705.82 584.41,-698.11 573.92,-699.61 577.15,-705.82"/>
</g>
<!-- INF1007&#45;&gt;INF1018 -->
<g id="edge10" class="edge">
<title>INF1007&#45;&gt;INF1018</title>
<path fill="none" stroke="black" d="M417.19,-826C457.72,-826 514.54,-826 558.06,-826"/>
<polygon fill="black" stroke="black" points="558.25,-829.5 568.25,-826 558.25,-822.5 558.25,-829.5"/>
</g>
<!-- MAT1158 -->
<g id="node34" class="node">
<title>MAT1158</title>
<polygon fill="none" stroke="black" points="444,-486 286,-486 286,-448 444,-448 444,-486"/>
<text text-anchor="middle" x="365" y="-470.8" font-family="Times New Roman,serif" font-size="14.00">MAT1158</text>
<text text-anchor="middle" x="365" y="-455.8" font-family="Times New Roman,serif" font-size="14.00">Cálculo a uma Variável B</text>
</g>
<!-- MAT1158&#45;&gt;INF0377 -->
<g id="edge20" class="edge">
<title>MAT1158&#45;&gt;INF0377</title>
<path fill="none" stroke="black" d="M444.18,-482.62C469.84,-487.25 498.55,-491.9 525,-495 703.21,-515.87 910.55,-525.5 1040.92,-529.78"/>
<polygon fill="black" stroke="black" points="1040.84,-533.28 1050.95,-530.11 1041.06,-526.29 1040.84,-533.28"/>
</g>
<!-- MAT1158&#45;&gt;MAT1162 -->
<g id="edge11" class="edge">
<title>MAT1158&#45;&gt;MAT1162</title>
<path fill="none" stroke="black" d="M444.2,-467C470.28,-467 499.62,-467 526.84,-467"/>
<polygon fill="black" stroke="black" points="527.16,-470.5 537.16,-467 527.16,-463.5 527.16,-470.5"/>
</g>
<!-- MAT1250 -->
<g id="node35" class="node">
<title>MAT1250</title>
<polygon fill="none" stroke="black" points="421,-430 309,-430 309,-392 421,-392 421,-430"/>
<text text-anchor="middle" x="365" y="-414.8" font-family="Times New Roman,serif" font-size="14.00">MAT1250</text>
<text text-anchor="middle" x="365" y="-399.8" font-family="Times New Roman,serif" font-size="14.00">Álgebra Linear A</text>
</g>
<!-- INF1025 -->
<g id="node36" class="node">
<title>INF1025</title>
<polygon fill="none" stroke="black" points="185.5,-723 19.5,-723 19.5,-685 185.5,-685 185.5,-723"/>
<text text-anchor="middle" x="102.5" y="-707.8" font-family="Times New Roman,serif" font-size="14.00">INF1025</text>
<text text-anchor="middle" x="102.5" y="-692.8" font-family="Times New Roman,serif" font-size="14.00">Introdução à Programação</text>
</g>
<!-- INF1025&#45;&gt;INF0377 -->
<g id="edge19" class="edge">
<title>INF1025&#45;&gt;INF0377</title>
<path fill="none" stroke="black" d="M182.73,-684.96C305.18,-656.21 548.1,-601.79 757,-571 851.5,-557.07 958.98,-547.37 1040.53,-541.25"/>
<polygon fill="black" stroke="black" points="1041.14,-544.72 1050.85,-540.49 1040.62,-537.74 1041.14,-544.72"/>
</g>
<!-- INF1025&#45;&gt;INF1007 -->
<g id="edge1" class="edge">
<title>INF1025&#45;&gt;INF1007</title>
<path fill="none" stroke="black" d="M144.2,-723.06C190.04,-744.53 264.57,-779.43 313.94,-802.55"/>
<polygon fill="black" stroke="black" points="312.61,-805.8 323.15,-806.87 315.58,-799.46 312.61,-805.8"/>
</g>
<!-- INF1012 -->
<g id="node37" class="node">
<title>INF1012</title>
<polygon fill="none" stroke="black" points="172.5,-533 32.5,-533 32.5,-495 172.5,-495 172.5,-533"/>
<text text-anchor="middle" x="102.5" y="-517.8" font-family="Times New Roman,serif" font-size="14.00">INF1012</text>
<text text-anchor="middle" x="102.5" y="-502.8" font-family="Times New Roman,serif" font-size="14.00">Modelagem de Dados</text>
</g>
<!-- INF1012&#45;&gt;INF1383 -->
<g id="edge5" class="edge">
<title>INF1012&#45;&gt;INF1383</title>
<path fill="none" stroke="black" d="M144.19,-533.15C238.18,-577.38 470.15,-686.54 572.32,-734.62"/>
<polygon fill="black" stroke="black" points="570.96,-737.85 581.5,-738.94 573.95,-731.52 570.96,-737.85"/>
</g>
<!-- INF1009 -->
<g id="node38" class="node">
<title>INF1009</title>
<polygon fill="none" stroke="black" points="181.5,-1060 23.5,-1060 23.5,-1022 181.5,-1022 181.5,-1060"/>
<text text-anchor="middle" x="102.5" y="-1044.8" font-family="Times New Roman,serif" font-size="14.00">INF1009</text>
<text text-anchor="middle" x="102.5" y="-1029.8" font-family="Times New Roman,serif" font-size="14.00">Lógica para Computação</text>
</g>
<!-- INF1009&#45;&gt;INF1022 -->
<g id="edge22" class="edge">
<title>INF1009&#45;&gt;INF1022</title>
<path fill="none" stroke="black" d="M181.89,-1039.16C368.72,-1034.78 840.83,-1023.71 1057.58,-1018.62"/>
<polygon fill="black" stroke="black" points="1057.79,-1022.12 1067.7,-1018.39 1057.62,-1015.12 1057.79,-1022.12"/>
</g>
<!-- INF1031 -->
<g id="node39" class="node">
<title>INF1031</title>
<polygon fill="none" stroke="black" points="184.5,-1116 20.5,-1116 20.5,-1078 184.5,-1078 184.5,-1116"/>
<text text-anchor="middle" x="102.5" y="-1100.8" font-family="Times New Roman,serif" font-size="14.00">INF1031</text>
<text text-anchor="middle" x="102.5" y="-1085.8" font-family="Times New Roman,serif" font-size="14.00">Introdução à Computação</text>
</g>
<!-- MAT1157 -->
<g id="node40" class="node">
<title>MAT1157</title>
<polygon fill="none" stroke="black" points="185.5,-454 19.5,-454 19.5,-416 185.5,-416 185.5,-454"/>
<text text-anchor="middle" x="102.5" y="-438.8" font-family="Times New Roman,serif" font-size="14.00">MAT1157</text>
<text text-anchor="middle" x="102.5" y="-423.8" font-family="Times New Roman,serif" font-size="14.00">Cálculo de uma Variável A</text>
</g>
<!-- MAT1157&#45;&gt;MAT1158 -->
<g id="edge2" class="edge">
<title>MAT1157&#45;&gt;MAT1158</title>
<path fill="none" stroke="black" d="M185.57,-445.08C214.25,-448.6 246.56,-452.57 275.73,-456.16"/>
<polygon fill="black" stroke="black" points="275.55,-459.66 285.9,-457.41 276.4,-452.71 275.55,-459.66"/>
</g>
<!-- MAT1157&#45;&gt;MAT1250 -->
<g id="edge3" class="edge">
<title>MAT1157&#45;&gt;MAT1250</title>
<path fill="none" stroke="black" d="M185.57,-427.44C221.92,-424.09 264.11,-420.2 298.33,-417.05"/>
<polygon fill="black" stroke="black" points="299.05,-420.5 308.68,-416.1 298.4,-413.53 299.05,-420.5"/>
</g>
<!-- MAT1320 -->
<g id="node41" class="node">
<title>MAT1320</title>
<polygon fill="none" stroke="black" points="205,-1004 0,-1004 0,-966 205,-966 205,-1004"/>
<text text-anchor="middle" x="102.5" y="-988.8" font-family="Times New Roman,serif" font-size="14.00">MAT1320</text>
<text text-anchor="middle" x="102.5" y="-973.8" font-family="Times New Roman,serif" font-size="14.00">Introdução à Matemática Discreta</text>
</g>
<!-- MAT1320&#45;&gt;INF1631 -->
<g id="edge7" class="edge">
<title>MAT1320&#45;&gt;INF1631</title>
<path fill="none" stroke="black" d="M205.01,-985.98C306.07,-986.95 458.72,-988.43 548.58,-989.29"/>
<polygon fill="black" stroke="black" points="548.65,-992.79 558.69,-989.39 548.72,-985.79 548.65,-992.79"/>
</g>
</g>
</svg>
