<?xml version="1.0" encoding="UTF-8" standalone="no"?>
<!DOCTYPE svg PUBLIC "-//W3C//DTD SVG 1.1//EN"
 "http://www.w3.org/Graphics/SVG/1.1/DTD/svg11.dtd">
<!-- Generated by graphviz version 2.44.1 (20200629.0800)
 -->
<!-- Pages: 1 -->
<svg width="1385pt" height="968pt"
 viewBox="0.00 0.00 1385.00 968.00" xmlns="http://www.w3.org/2000/svg" xmlns:xlink="http://www.w3.org/1999/xlink">
<g id="graph0" class="graph" transform="scale(1 1) rotate(0) translate(4 964)">
<polygon fill="white" stroke="transparent" points="-4,4 -4,-964 1381,-964 1381,4 -4,4"/>
<!-- INF1025 -->
<g id="node1" class="node">
<title>INF1025</title>
<polygon fill="none" stroke="black" points="936,-576 770,-576 770,-538 936,-538 936,-576"/>
<text text-anchor="middle" x="853" y="-560.8" font-family="Times New Roman,serif" font-size="14.00">INF1025</text>
<text text-anchor="middle" x="853" y="-545.8" font-family="Times New Roman,serif" font-size="14.00">Introdução à Programação</text>
</g>
<!-- INF1007 -->
<g id="node10" class="node">
<title>INF1007</title>
<polygon fill="none" stroke="black" points="658,-502 554,-502 554,-464 658,-464 658,-502"/>
<text text-anchor="middle" x="606" y="-486.8" font-family="Times New Roman,serif" font-size="14.00">INF1007</text>
<text text-anchor="middle" x="606" y="-471.8" font-family="Times New Roman,serif" font-size="14.00">Programação II</text>
</g>
<!-- INF1025&#45;&gt;INF1007 -->
<g id="edge1" class="edge">
<title>INF1025&#45;&gt;INF1007</title>
<path fill="none" stroke="black" d="M790.99,-537.92C753.34,-526.95 705.46,-512.99 667.84,-502.03"/>
<polygon fill="black" stroke="black" points="668.6,-498.6 658.02,-499.16 666.64,-505.32 668.6,-498.6"/>
</g>
<!-- INF0377 -->
<g id="node26" class="node">
<title>INF0377</title>
<polygon fill="none" stroke="black" points="1176.5,-502 937.5,-502 937.5,-464 1176.5,-464 1176.5,-502"/>
<text text-anchor="middle" x="1057" y="-486.8" font-family="Times New Roman,serif" font-size="14.00">INF0377</text>
<text text-anchor="middle" x="1057" y="-471.8" font-family="Times New Roman,serif" font-size="14.00">Optativas de Probabilidade e Estatística</text>
</g>
<!-- INF1025&#45;&gt;INF0377 -->
<g id="edge19" class="edge">
<title>INF1025&#45;&gt;INF0377</title>
<path fill="none" stroke="black" d="M904.21,-537.92C932.1,-528.08 966.79,-515.84 996.06,-505.51"/>
<polygon fill="black" stroke="black" points="997.5,-508.71 1005.76,-502.08 995.17,-502.11 997.5,-508.71"/>
</g>
<!-- INF1012 -->
<g id="node2" class="node">
<title>INF1012</title>
<polygon fill="none" stroke="black" points="140,-502 0,-502 0,-464 140,-464 140,-502"/>
<text text-anchor="middle" x="70" y="-486.8" font-family="Times New Roman,serif" font-size="14.00">INF1012</text>
<text text-anchor="middle" x="70" y="-471.8" font-family="Times New Roman,serif" font-size="14.00">Modelagem de Dados</text>
</g>
<!-- INF1383 -->
<g id="node13" class="node">
<title>INF1383</title>
<polygon fill="none" stroke="black" points="146,-428 36,-428 36,-390 146,-390 146,-428"/>
<text text-anchor="middle" x="91" y="-412.8" font-family="Times New Roman,serif" font-size="14.00">INF1383</text>
<text text-anchor="middle" x="91" y="-397.8" font-family="Times New Roman,serif" font-size="14.00">Banco de Dados</text>
</g>
<!-- INF1012&#45;&gt;INF1383 -->
<g id="edge5" class="edge">
<title>INF1012&#45;&gt;INF1383</title>
<path fill="none" stroke="black" d="M75.3,-463.83C77.57,-456.05 80.27,-446.77 82.79,-438.13"/>
<polygon fill="black" stroke="black" points="86.19,-438.99 85.63,-428.41 79.47,-437.03 86.19,-438.99"/>
</g>
<!-- INF1009 -->
<g id="node3" class="node">
<title>INF1009</title>
<polygon fill="none" stroke="black" points="919,-502 761,-502 761,-464 919,-464 919,-502"/>
<text text-anchor="middle" x="840" y="-486.8" font-family="Times New Roman,serif" font-size="14.00">INF1009</text>
<text text-anchor="middle" x="840" y="-471.8" font-family="Times New Roman,serif" font-size="14.00">Lógica para Computação</text>
</g>
<!-- INF1022 -->
<g id="node27" class="node">
<title>INF1022</title>
<polygon fill="none" stroke="black" points="1027.5,-428 822.5,-428 822.5,-390 1027.5,-390 1027.5,-428"/>
<text text-anchor="middle" x="925" y="-412.8" font-family="Times New Roman,serif" font-size="14.00">INF1022</text>
<text text-anchor="middle" x="925" y="-397.8" font-family="Times New Roman,serif" font-size="14.00">Analisadores Léxicos e Sintáticos</text>
</g>
<!-- INF1009&#45;&gt;INF1022 -->
<g id="edge22" class="edge">
<title>INF1009&#45;&gt;INF1022</title>
<path fill="none" stroke="black" d="M861.45,-463.83C871.82,-455.05 884.42,-444.37 895.66,-434.85"/>
<polygon fill="black" stroke="black" points="898.19,-437.3 903.56,-428.16 893.67,-431.96 898.19,-437.3"/>
</g>
<!-- INF1031 -->
<g id="node4" class="node">
<title>INF1031</title>
<polygon fill="none" stroke="black" points="780,-878 616,-878 616,-840 780,-840 780,-878"/>
<text text-anchor="middle" x="698" y="-862.8" font-family="Times New Roman,serif" font-size="14.00">INF1031</text>
<text text-anchor="middle" x="698" y="-847.8" font-family="Times New Roman,serif" font-size="14.00">Introdução à Computação</text>
</g>
<!-- MAT1157 -->
<g id="node5" class="node">
<title>MAT1157</title>
<polygon fill="none" stroke="black" points="1327,-650 1161,-650 1161,-612 1327,-612 1327,-650"/>
<text text-anchor="middle" x="1244" y="-634.8" font-family="Times New Roman,serif" font-size="14.00">MAT1157</text>
<text text-anchor="middle" x="1244" y="-619.8" font-family="Times New Roman,serif" font-size="14.00">Cálculo de uma Variável A</text>
</g>
<!-- MAT1158 -->
<g id="node11" class="node">
<title>MAT1158</title>
<polygon fill="none" stroke="black" points="1247,-576 1089,-576 1089,-538 1247,-538 1247,-576"/>
<text text-anchor="middle" x="1168" y="-560.8" font-family="Times New Roman,serif" font-size="14.00">MAT1158</text>
<text text-anchor="middle" x="1168" y="-545.8" font-family="Times New Roman,serif" font-size="14.00">Cálculo a uma Variável B</text>
</g>
<!-- MAT1157&#45;&gt;MAT1158 -->
<g id="edge2" class="edge">
<title>MAT1157&#45;&gt;MAT1158</title>
<path fill="none" stroke="black" d="M1224.82,-611.83C1215.64,-603.13 1204.5,-592.58 1194.52,-583.13"/>
<polygon fill="black" stroke="black" points="1196.84,-580.5 1187.17,-576.16 1192.02,-585.58 1196.84,-580.5"/>
</g>
<!-- MAT1250 -->
<g id="node12" class="node">
<title>MAT1250</title>
<polygon fill="none" stroke="black" points="1377,-576 1265,-576 1265,-538 1377,-538 1377,-576"/>
<text text-anchor="middle" x="1321" y="-560.8" font-family="Times New Roman,serif" font-size="14.00">MAT1250</text>
<text text-anchor="middle" x="1321" y="-545.8" font-family="Times New Roman,serif" font-size="14.00">Álgebra Linear A</text>
</g>
<!-- MAT1157&#45;&gt;MAT1250 -->
<g id="edge3" class="edge">
<title>MAT1157&#45;&gt;MAT1250</title>
<path fill="none" stroke="black" d="M1263.43,-611.83C1272.73,-603.13 1284.02,-592.58 1294.13,-583.13"/>
<polygon fill="black" stroke="black" points="1296.66,-585.55 1301.58,-576.16 1291.88,-580.44 1296.66,-585.55"/>
</g>
<!-- MAT1320 -->
<g id="node6" class="node">
<title>MAT1320</title>
<polygon fill="none" stroke="black" points="363.5,-502 158.5,-502 158.5,-464 363.5,-464 363.5,-502"/>
<text text-anchor="middle" x="261" y="-486.8" font-family="Times New Roman,serif" font-size="14.00">MAT1320</text>
<text text-anchor="middle" x="261" y="-471.8" font-family="Times New Roman,serif" font-size="14.00">Introdução à Matemática Discreta</text>
</g>
<!-- INF1631 -->
<g id="node14" class="node">
<title>INF1631</title>
<polygon fill="none" stroke="black" points="303,-428 175,-428 175,-390 303,-390 303,-428"/>
<text text-anchor="middle" x="239" y="-412.8" font-family="Times New Roman,serif" font-size="14.00">INF1631</text>
<text text-anchor="middle" x="239" y="-397.8" font-family="Times New Roman,serif" font-size="14.00">Estruturas Discretas</text>
</g>
<!-- MAT1320&#45;&gt;INF1631 -->
<g id="edge7" class="edge">
<title>MAT1320&#45;&gt;INF1631</title>
<path fill="none" stroke="black" d="M255.45,-463.83C253.07,-456.05 250.24,-446.77 247.6,-438.13"/>
<polygon fill="black" stroke="black" points="250.9,-436.95 244.63,-428.41 244.2,-439 250.9,-436.95"/>
</g>
<!-- CRE1100 -->
<g id="node7" class="node">
<title>CRE1100</title>
<polygon fill="none" stroke="black" points="1208,-960 990,-960 990,-922 1208,-922 1208,-960"/>
<text text-anchor="middle" x="1099" y="-944.8" font-family="Times New Roman,serif" font-size="14.00">CRE1100</text>
<text text-anchor="middle" x="1099" y="-929.8" font-family="Times New Roman,serif" font-size="14.00">O Humano e o Fenômeno Religioso</text>
</g>
<!-- CRE0710 -->
<g id="node19" class="node">
<title>CRE0710</title>
<polygon fill="none" stroke="black" points="1179.5,-886 1018.5,-886 1018.5,-848 1179.5,-848 1179.5,-886"/>
<text text-anchor="middle" x="1099" y="-870.8" font-family="Times New Roman,serif" font-size="14.00">CRE0710</text>
<text text-anchor="middle" x="1099" y="-855.8" font-family="Times New Roman,serif" font-size="14.00">Optativas de Cristianismo</text>
</g>
<!-- CRE1100&#45;&gt;CRE0710 -->
<g id="edge12" class="edge">
<title>CRE1100&#45;&gt;CRE0710</title>
<path fill="none" stroke="black" d="M1099,-921.83C1099,-914.13 1099,-904.97 1099,-896.42"/>
<polygon fill="black" stroke="black" points="1102.5,-896.41 1099,-886.41 1095.5,-896.41 1102.5,-896.41"/>
</g>
<!-- INF0380 -->
<g id="node8" class="node">
<title>INF0380</title>
<polygon fill="none" stroke="black" points="948,-122 700,-122 700,-84 948,-84 948,-122"/>
<text text-anchor="middle" x="824" y="-106.8" font-family="Times New Roman,serif" font-size="14.00">INF0380</text>
<text text-anchor="middle" x="824" y="-91.8" font-family="Times New Roman,serif" font-size="14.00">Optativas de Comp e Produção de Texto</text>
</g>
<!-- INF1403 -->
<g id="node9" class="node">
<title>INF1403</title>
<polygon fill="none" stroke="black" points="546,-122 364,-122 364,-84 546,-84 546,-122"/>
<text text-anchor="middle" x="455" y="-106.8" font-family="Times New Roman,serif" font-size="14.00">INF1403</text>
<text text-anchor="middle" x="455" y="-91.8" font-family="Times New Roman,serif" font-size="14.00">Intr Int Humano&#45;Computador</text>
</g>
<!-- INF1007&#45;&gt;INF1383 -->
<g id="edge4" class="edge">
<title>INF1007&#45;&gt;INF1383</title>
<path fill="none" stroke="black" d="M553.9,-477.54C471.24,-470.02 305.16,-453.16 166,-428 162.77,-427.42 159.47,-426.78 156.15,-426.11"/>
<polygon fill="black" stroke="black" points="156.65,-422.63 146.14,-423.98 155.2,-429.48 156.65,-422.63"/>
</g>
<!-- INF1007&#45;&gt;INF1631 -->
<g id="edge6" class="edge">
<title>INF1007&#45;&gt;INF1631</title>
<path fill="none" stroke="black" d="M553.77,-473.38C496.91,-463.78 403.11,-447.31 312.89,-428.13"/>
<polygon fill="black" stroke="black" points="313.55,-424.69 303.04,-426.02 312.09,-431.54 313.55,-424.69"/>
</g>
<!-- INF1010 -->
<g id="node15" class="node">
<title>INF1010</title>
<polygon fill="none" stroke="black" points="517,-428 321,-428 321,-390 517,-390 517,-428"/>
<text text-anchor="middle" x="419" y="-412.8" font-family="Times New Roman,serif" font-size="14.00">INF1010</text>
<text text-anchor="middle" x="419" y="-397.8" font-family="Times New Roman,serif" font-size="14.00">Estruturas de Dados Avançadas</text>
</g>
<!-- INF1007&#45;&gt;INF1010 -->
<g id="edge8" class="edge">
<title>INF1007&#45;&gt;INF1010</title>
<path fill="none" stroke="black" d="M558.81,-463.83C533.47,-454.07 502.05,-441.98 475.42,-431.72"/>
<polygon fill="black" stroke="black" points="476.44,-428.36 465.85,-428.04 473.92,-434.9 476.44,-428.36"/>
</g>
<!-- INF1301 -->
<g id="node16" class="node">
<title>INF1301</title>
<polygon fill="none" stroke="black" points="677,-428 535,-428 535,-390 677,-390 677,-428"/>
<text text-anchor="middle" x="606" y="-412.8" font-family="Times New Roman,serif" font-size="14.00">INF1301</text>
<text text-anchor="middle" x="606" y="-397.8" font-family="Times New Roman,serif" font-size="14.00">Programação Modular</text>
</g>
<!-- INF1007&#45;&gt;INF1301 -->
<g id="edge9" class="edge">
<title>INF1007&#45;&gt;INF1301</title>
<path fill="none" stroke="black" d="M606,-463.83C606,-456.13 606,-446.97 606,-438.42"/>
<polygon fill="black" stroke="black" points="609.5,-438.41 606,-428.41 602.5,-438.41 609.5,-438.41"/>
</g>
<!-- INF1018 -->
<g id="node17" class="node">
<title>INF1018</title>
<polygon fill="none" stroke="black" points="804.5,-428 695.5,-428 695.5,-390 804.5,-390 804.5,-428"/>
<text text-anchor="middle" x="750" y="-412.8" font-family="Times New Roman,serif" font-size="14.00">INF1018</text>
<text text-anchor="middle" x="750" y="-397.8" font-family="Times New Roman,serif" font-size="14.00">Software Básico</text>
</g>
<!-- INF1007&#45;&gt;INF1018 -->
<g id="edge10" class="edge">
<title>INF1007&#45;&gt;INF1018</title>
<path fill="none" stroke="black" d="M642.34,-463.83C661.34,-454.33 684.78,-442.61 704.93,-432.54"/>
<polygon fill="black" stroke="black" points="706.55,-435.64 713.92,-428.04 703.41,-429.38 706.55,-435.64"/>
</g>
<!-- INF1007&#45;&gt;INF1022 -->
<g id="edge21" class="edge">
<title>INF1007&#45;&gt;INF1022</title>
<path fill="none" stroke="black" d="M658.32,-470.19C706.17,-459.39 777.99,-443.18 835.04,-430.3"/>
<polygon fill="black" stroke="black" points="836.17,-433.64 845.15,-428.02 834.63,-426.81 836.17,-433.64"/>
</g>
<!-- MAT1162 -->
<g id="node18" class="node">
<title>MAT1162</title>
<polygon fill="none" stroke="black" points="1365.5,-502 1194.5,-502 1194.5,-464 1365.5,-464 1365.5,-502"/>
<text text-anchor="middle" x="1280" y="-486.8" font-family="Times New Roman,serif" font-size="14.00">MAT1162</text>
<text text-anchor="middle" x="1280" y="-471.8" font-family="Times New Roman,serif" font-size="14.00">Cálculo a Várias Variáveis I</text>
</g>
<!-- MAT1158&#45;&gt;MAT1162 -->
<g id="edge11" class="edge">
<title>MAT1158&#45;&gt;MAT1162</title>
<path fill="none" stroke="black" d="M1196.26,-537.83C1210.46,-528.71 1227.83,-517.54 1243.06,-507.74"/>
<polygon fill="black" stroke="black" points="1245.23,-510.51 1251.75,-502.16 1241.44,-504.63 1245.23,-510.51"/>
</g>
<!-- MAT1158&#45;&gt;INF0377 -->
<g id="edge20" class="edge">
<title>MAT1158&#45;&gt;INF0377</title>
<path fill="none" stroke="black" d="M1139.99,-537.83C1125.92,-528.71 1108.71,-517.54 1093.61,-507.74"/>
<polygon fill="black" stroke="black" points="1095.3,-504.67 1085,-502.16 1091.49,-510.54 1095.3,-504.67"/>
</g>
<!-- INF1028 -->
<g id="node28" class="node">
<title>INF1028</title>
<polygon fill="none" stroke="black" points="470.5,-280 281.5,-280 281.5,-242 470.5,-242 470.5,-280"/>
<text text-anchor="middle" x="376" y="-264.8" font-family="Times New Roman,serif" font-size="14.00">INF1028</text>
<text text-anchor="middle" x="376" y="-249.8" font-family="Times New Roman,serif" font-size="14.00">Projeto e Construção Sistemas</text>
</g>
<!-- INF1383&#45;&gt;INF1028 -->
<g id="edge24" class="edge">
<title>INF1383&#45;&gt;INF1028</title>
<path fill="none" stroke="black" d="M89.31,-389.72C88.48,-368.92 90.59,-335.34 110,-316 132.77,-293.31 206.84,-279.46 271.05,-271.48"/>
<polygon fill="black" stroke="black" points="271.75,-274.92 281.26,-270.25 270.91,-267.97 271.75,-274.92"/>
</g>
<!-- INF1721 -->
<g id="node30" class="node">
<title>INF1721</title>
<polygon fill="none" stroke="black" points="259,-354 119,-354 119,-316 259,-316 259,-354"/>
<text text-anchor="middle" x="189" y="-338.8" font-family="Times New Roman,serif" font-size="14.00">INF1721</text>
<text text-anchor="middle" x="189" y="-323.8" font-family="Times New Roman,serif" font-size="14.00">Análise de Algoritmos</text>
</g>
<!-- INF1631&#45;&gt;INF1721 -->
<g id="edge28" class="edge">
<title>INF1631&#45;&gt;INF1721</title>
<path fill="none" stroke="black" d="M226.38,-389.83C220.68,-381.62 213.83,-371.76 207.56,-362.73"/>
<polygon fill="black" stroke="black" points="210.37,-360.63 201.79,-354.41 204.62,-364.62 210.37,-360.63"/>
</g>
<!-- INF1010&#45;&gt;INF1721 -->
<g id="edge27" class="edge">
<title>INF1010&#45;&gt;INF1721</title>
<path fill="none" stroke="black" d="M361.26,-389.92C329.41,-379.95 289.69,-367.52 256.42,-357.1"/>
<polygon fill="black" stroke="black" points="257.35,-353.73 246.77,-354.08 255.26,-360.41 257.35,-353.73"/>
</g>
<!-- INF1027 -->
<g id="node20" class="node">
<title>INF1027</title>
<polygon fill="none" stroke="black" points="924,-354 738,-354 738,-316 924,-316 924,-354"/>
<text text-anchor="middle" x="831" y="-338.8" font-family="Times New Roman,serif" font-size="14.00">INF1027</text>
<text text-anchor="middle" x="831" y="-323.8" font-family="Times New Roman,serif" font-size="14.00">Testes e Medidas de Software</text>
</g>
<!-- INF1301&#45;&gt;INF1027 -->
<g id="edge13" class="edge">
<title>INF1301&#45;&gt;INF1027</title>
<path fill="none" stroke="black" d="M662.49,-389.92C693.51,-380 732.17,-367.63 764.63,-357.24"/>
<polygon fill="black" stroke="black" points="766.03,-360.46 774.49,-354.08 763.9,-353.8 766.03,-360.46"/>
</g>
<!-- INF1629 -->
<g id="node23" class="node">
<title>INF1629</title>
<polygon fill="none" stroke="black" points="719.5,-354 492.5,-354 492.5,-316 719.5,-316 719.5,-354"/>
<text text-anchor="middle" x="606" y="-338.8" font-family="Times New Roman,serif" font-size="14.00">INF1629</text>
<text text-anchor="middle" x="606" y="-323.8" font-family="Times New Roman,serif" font-size="14.00">Princípios de Engenharia de Software</text>
</g>
<!-- INF1301&#45;&gt;INF1629 -->
<g id="edge16" class="edge">
<title>INF1301&#45;&gt;INF1629</title>
<path fill="none" stroke="black" d="M606,-389.83C606,-382.13 606,-372.97 606,-364.42"/>
<polygon fill="black" stroke="black" points="609.5,-364.41 606,-354.41 602.5,-364.41 609.5,-364.41"/>
</g>
<!-- INF1636 -->
<g id="node24" class="node">
<title>INF1636</title>
<polygon fill="none" stroke="black" points="474.5,-354 277.5,-354 277.5,-316 474.5,-316 474.5,-354"/>
<text text-anchor="middle" x="376" y="-338.8" font-family="Times New Roman,serif" font-size="14.00">INF1636</text>
<text text-anchor="middle" x="376" y="-323.8" font-family="Times New Roman,serif" font-size="14.00">Programação Orientada Objetos</text>
</g>
<!-- INF1301&#45;&gt;INF1636 -->
<g id="edge17" class="edge">
<title>INF1301&#45;&gt;INF1636</title>
<path fill="none" stroke="black" d="M548.26,-389.92C516.41,-379.95 476.69,-367.52 443.42,-357.1"/>
<polygon fill="black" stroke="black" points="444.35,-353.73 433.77,-354.08 442.26,-360.41 444.35,-353.73"/>
</g>
<!-- INF1029 -->
<g id="node21" class="node">
<title>INF1029</title>
<polygon fill="none" stroke="black" points="1200,-354 942,-354 942,-316 1200,-316 1200,-354"/>
<text text-anchor="middle" x="1071" y="-338.8" font-family="Times New Roman,serif" font-size="14.00">INF1029</text>
<text text-anchor="middle" x="1071" y="-323.8" font-family="Times New Roman,serif" font-size="14.00">Introdução à Arquitetura de Computadores</text>
</g>
<!-- INF1018&#45;&gt;INF1029 -->
<g id="edge14" class="edge">
<title>INF1018&#45;&gt;INF1029</title>
<path fill="none" stroke="black" d="M804.57,-392.15C807.42,-391.4 810.24,-390.68 813,-390 863.39,-377.54 919.78,-365.53 966.96,-356"/>
<polygon fill="black" stroke="black" points="967.77,-359.41 976.88,-354.01 966.39,-352.55 967.77,-359.41"/>
</g>
<!-- INF1316 -->
<g id="node22" class="node">
<title>INF1316</title>
<polygon fill="none" stroke="black" points="1361.5,-354 1218.5,-354 1218.5,-316 1361.5,-316 1361.5,-354"/>
<text text-anchor="middle" x="1290" y="-338.8" font-family="Times New Roman,serif" font-size="14.00">INF1316</text>
<text text-anchor="middle" x="1290" y="-323.8" font-family="Times New Roman,serif" font-size="14.00">Sistemas Operacionais</text>
</g>
<!-- INF1018&#45;&gt;INF1316 -->
<g id="edge15" class="edge">
<title>INF1018&#45;&gt;INF1316</title>
<path fill="none" stroke="black" d="M804.83,-391.68C807.58,-391.07 810.32,-390.5 813,-390 983.5,-358.18 1032.57,-380.37 1208.01,-354.03"/>
<polygon fill="black" stroke="black" points="1208.75,-357.45 1218.1,-352.48 1207.69,-350.53 1208.75,-357.45"/>
</g>
<!-- CRE1141 -->
<g id="node25" class="node">
<title>CRE1141</title>
<polygon fill="none" stroke="black" points="1139.5,-812 1058.5,-812 1058.5,-774 1139.5,-774 1139.5,-812"/>
<text text-anchor="middle" x="1099" y="-796.8" font-family="Times New Roman,serif" font-size="14.00">CRE1141</text>
<text text-anchor="middle" x="1099" y="-781.8" font-family="Times New Roman,serif" font-size="14.00">Ética Crista</text>
</g>
<!-- CRE0710&#45;&gt;CRE1141 -->
<g id="edge18" class="edge">
<title>CRE0710&#45;&gt;CRE1141</title>
<path fill="none" stroke="black" d="M1099,-847.83C1099,-840.13 1099,-830.97 1099,-822.42"/>
<polygon fill="black" stroke="black" points="1102.5,-822.41 1099,-812.41 1095.5,-822.41 1102.5,-822.41"/>
</g>
<!-- INF1027&#45;&gt;INF1028 -->
<g id="edge23" class="edge">
<title>INF1027&#45;&gt;INF1028</title>
<path fill="none" stroke="black" d="M737.82,-317.63C734.5,-317.07 731.22,-316.53 728,-316 644.99,-302.38 550.79,-287.99 480.74,-277.48"/>
<polygon fill="black" stroke="black" points="480.99,-273.98 470.58,-275.96 479.95,-280.91 480.99,-273.98"/>
</g>
<!-- INF1317 -->
<g id="node29" class="node">
<title>INF1317</title>
<polygon fill="none" stroke="black" points="1368,-280 1212,-280 1212,-242 1368,-242 1368,-280"/>
<text text-anchor="middle" x="1290" y="-264.8" font-family="Times New Roman,serif" font-size="14.00">INF1317</text>
<text text-anchor="middle" x="1290" y="-249.8" font-family="Times New Roman,serif" font-size="14.00">Redes de Computadores</text>
</g>
<!-- INF1316&#45;&gt;INF1317 -->
<g id="edge26" class="edge">
<title>INF1316&#45;&gt;INF1317</title>
<path fill="none" stroke="black" d="M1290,-315.83C1290,-308.13 1290,-298.97 1290,-290.42"/>
<polygon fill="black" stroke="black" points="1293.5,-290.41 1290,-280.41 1286.5,-290.41 1293.5,-290.41"/>
</g>
<!-- INF1636&#45;&gt;INF1028 -->
<g id="edge25" class="edge">
<title>INF1636&#45;&gt;INF1028</title>
<path fill="none" stroke="black" d="M376,-315.83C376,-308.13 376,-298.97 376,-290.42"/>
<polygon fill="black" stroke="black" points="379.5,-290.41 376,-280.41 372.5,-290.41 379.5,-290.41"/>
</g>
<!-- CRE1175 -->
<g id="node33" class="node">
<title>CRE1175</title>
<polygon fill="none" stroke="black" points="1218,-738 980,-738 980,-700 1218,-700 1218,-738"/>
<text text-anchor="middle" x="1099" y="-722.8" font-family="Times New Roman,serif" font-size="14.00">CRE1175</text>
<text text-anchor="middle" x="1099" y="-707.8" font-family="Times New Roman,serif" font-size="14.00">Ética Socioambiental Direitos Humanos</text>
</g>
<!-- CRE1141&#45;&gt;CRE1175 -->
<g id="edge30" class="edge">
<title>CRE1141&#45;&gt;CRE1175</title>
<path fill="none" stroke="black" d="M1099,-773.83C1099,-766.13 1099,-756.97 1099,-748.42"/>
<polygon fill="black" stroke="black" points="1102.5,-748.41 1099,-738.41 1095.5,-748.41 1102.5,-748.41"/>
</g>
<!-- INF1033 -->
<g id="node32" class="node">
<title>INF1033</title>
<polygon fill="none" stroke="black" points="498.5,-206 253.5,-206 253.5,-168 498.5,-168 498.5,-206"/>
<text text-anchor="middle" x="376" y="-190.8" font-family="Times New Roman,serif" font-size="14.00">INF1033</text>
<text text-anchor="middle" x="376" y="-175.8" font-family="Times New Roman,serif" font-size="14.00">Estágio Supervisionado em Computação</text>
</g>
<!-- INF1028&#45;&gt;INF1033 -->
<g id="edge29" class="edge">
<title>INF1028&#45;&gt;INF1033</title>
<path fill="none" stroke="black" d="M376,-241.83C376,-234.13 376,-224.97 376,-216.42"/>
<polygon fill="black" stroke="black" points="379.5,-216.41 376,-206.41 372.5,-216.41 379.5,-216.41"/>
</g>
<!-- INF1014 -->
<g id="node31" class="node">
<title>INF1014</title>
<polygon fill="none" stroke="black" points="358,-38 280,-38 280,0 358,0 358,-38"/>
<text text-anchor="middle" x="319" y="-22.8" font-family="Times New Roman,serif" font-size="14.00">INF1014</text>
<text text-anchor="middle" x="319" y="-7.8" font-family="Times New Roman,serif" font-size="14.00">Seminários</text>
</g>
<!-- FIL0300 -->
<g id="node34" class="node">
<title>FIL0300</title>
<polygon fill="none" stroke="black" points="903.5,-38 700.5,-38 700.5,0 903.5,0 903.5,-38"/>
<text text-anchor="middle" x="802" y="-22.8" font-family="Times New Roman,serif" font-size="14.00">FIL0300</text>
<text text-anchor="middle" x="802" y="-7.8" font-family="Times New Roman,serif" font-size="14.00">Optativas de Filosofia &#45; CB/CTC</text>
</g>
<!-- INF1950 -->
<g id="node35" class="node">
<title>INF1950</title>
<polygon fill="none" stroke="black" points="939,-896 843,-896 843,-858 939,-858 939,-896"/>
<text text-anchor="middle" x="891" y="-880.8" font-family="Times New Roman,serif" font-size="14.00">INF1950</text>
<text text-anchor="middle" x="891" y="-865.8" font-family="Times New Roman,serif" font-size="14.00">Projeto Final I</text>
</g>
<!-- INF1951 -->
<g id="node37" class="node">
<title>INF1951</title>
<polygon fill="none" stroke="black" points="941.5,-822 840.5,-822 840.5,-784 941.5,-784 941.5,-822"/>
<text text-anchor="middle" x="891" y="-806.8" font-family="Times New Roman,serif" font-size="14.00">INF1951</text>
<text text-anchor="middle" x="891" y="-791.8" font-family="Times New Roman,serif" font-size="14.00">Projeto Final II</text>
</g>
<!-- INF1950&#45;&gt;INF1951 -->
<g id="edge31" class="edge">
<title>INF1950&#45;&gt;INF1951</title>
<path fill="none" stroke="black" d="M891,-857.83C891,-850.13 891,-840.97 891,-832.42"/>
<polygon fill="black" stroke="black" points="894.5,-832.41 891,-822.41 887.5,-832.41 894.5,-832.41"/>
</g>
<!-- INF0381 -->
<g id="node36" class="node">
<title>INF0381</title>
<polygon fill="none" stroke="black" points="596,-794 364,-794 364,-756 596,-756 596,-794"/>
<text text-anchor="middle" x="480" y="-778.8" font-family="Times New Roman,serif" font-size="14.00">INF0381</text>
<text text-anchor="middle" x="480" y="-763.8" font-family="Times New Roman,serif" font-size="14.00">Optativas de Direito para Computação</text>
</g>
<!-- ACP0900 -->
<g id="node38" class="node">
<title>ACP0900</title>
<polygon fill="none" stroke="black" points="565.5,-878 392.5,-878 392.5,-840 565.5,-840 565.5,-878"/>
<text text-anchor="middle" x="479" y="-862.8" font-family="Times New Roman,serif" font-size="14.00">ACP0900</text>
<text text-anchor="middle" x="479" y="-847.8" font-family="Times New Roman,serif" font-size="14.00">Atividades Complementares</text>
</g>
<!-- ELL0900 -->
<g id="node39" class="node">
<title>ELL0900</title>
<polygon fill="none" stroke="black" points="922,-738 644,-738 644,-700 922,-700 922,-738"/>
<text text-anchor="middle" x="783" y="-722.8" font-family="Times New Roman,serif" font-size="14.00">ELL0900</text>
<text text-anchor="middle" x="783" y="-707.8" font-family="Times New Roman,serif" font-size="14.00">Eletivas Livres &#45; Dentro/Fora do Departamento</text>
</g>
<!-- INF0378 -->
<g id="node40" class="node">
<title>INF0378</title>
<polygon fill="none" stroke="black" points="1252,-122 1008,-122 1008,-84 1252,-84 1252,-122"/>
<text text-anchor="middle" x="1130" y="-106.8" font-family="Times New Roman,serif" font-size="14.00">INF0378</text>
<text text-anchor="middle" x="1130" y="-91.8" font-family="Times New Roman,serif" font-size="14.00">Optativas de Formação em Computação</text>
</g>
<!-- INF0379 -->
<g id="node41" class="node">
<title>INF0379</title>
<polygon fill="none" stroke="black" points="1115.5,-38 952.5,-38 952.5,0 1115.5,0 1115.5,-38"/>
<text text-anchor="middle" x="1034" y="-22.8" font-family="Times New Roman,serif" font-size="14.00">INF0379</text>
<text text-anchor="middle" x="1034" y="-7.8" font-family="Times New Roman,serif" font-size="14.00">Optativas de Computação</text>
</g>
</g>
</svg>
