<?xml version="1.0" encoding="UTF-8" standalone="no"?>
<!DOCTYPE svg PUBLIC "-//W3C//DTD SVG 1.1//EN"
 "http://www.w3.org/Graphics/SVG/1.1/DTD/svg11.dtd">
<!-- Generated by graphviz version 2.43.0 (0)
 -->
<!-- Title: %3 Pages: 1 -->
<svg width="1688pt" height="1019pt"
 viewBox="0.00 0.00 1688.50 1019.00" xmlns="http://www.w3.org/2000/svg" xmlns:xlink="http://www.w3.org/1999/xlink">
<g id="graph0" class="graph" transform="scale(1 1) rotate(0) translate(4 1015)">
<title>%3</title>
<polygon fill="white" stroke="transparent" points="-4,4 -4,-1015 1684.5,-1015 1684.5,4 -4,4"/>
<!-- INF1025 -->
<g id="node1" class="node">
<title>INF1025</title>
<polygon fill="none" stroke="black" points="1148,-594 942,-594 942,-556 1148,-556 1148,-594"/>
<text text-anchor="middle" x="1045" y="-578.8" font-family="Times,serif" font-size="14.00">INF1025</text>
<text text-anchor="middle" x="1045" y="-563.8" font-family="Times,serif" font-size="14.00">Introdução à Programação</text>
</g>
<!-- INF1007 -->
<g id="node10" class="node">
<title>INF1007</title>
<polygon fill="none" stroke="black" points="805,-520 679,-520 679,-482 805,-482 805,-520"/>
<text text-anchor="middle" x="742" y="-504.8" font-family="Times,serif" font-size="14.00">INF1007</text>
<text text-anchor="middle" x="742" y="-489.8" font-family="Times,serif" font-size="14.00">Programação II</text>
</g>
<!-- INF1025&#45;&gt;INF1007 -->
<g id="edge1" class="edge">
<title>INF1025&#45;&gt;INF1007</title>
<path fill="none" stroke="black" d="M968.93,-555.92C921.9,-544.75 861.84,-530.48 815.32,-519.42"/>
<polygon fill="black" stroke="black" points="815.85,-515.95 805.31,-517.04 814.23,-522.76 815.85,-515.95"/>
</g>
<!-- INF0377 -->
<g id="node26" class="node">
<title>INF0377</title>
<polygon fill="none" stroke="black" points="1441.5,-520 1136.5,-520 1136.5,-482 1441.5,-482 1441.5,-520"/>
<text text-anchor="middle" x="1289" y="-504.8" font-family="Times,serif" font-size="14.00">INF0377</text>
<text text-anchor="middle" x="1289" y="-489.8" font-family="Times,serif" font-size="14.00">Optativas de Probabilidade e Estatística</text>
</g>
<!-- INF1025&#45;&gt;INF0377 -->
<g id="edge19" class="edge">
<title>INF1025&#45;&gt;INF0377</title>
<path fill="none" stroke="black" d="M1106.26,-555.92C1140.19,-545.91 1182.55,-533.41 1217.93,-522.97"/>
<polygon fill="black" stroke="black" points="1219.12,-526.27 1227.72,-520.08 1217.14,-519.56 1219.12,-526.27"/>
</g>
<!-- INF1012 -->
<g id="node2" class="node">
<title>INF1012</title>
<polygon fill="none" stroke="black" points="170,-520 0,-520 0,-482 170,-482 170,-520"/>
<text text-anchor="middle" x="85" y="-504.8" font-family="Times,serif" font-size="14.00">INF1012</text>
<text text-anchor="middle" x="85" y="-489.8" font-family="Times,serif" font-size="14.00">Modelagem de Dados</text>
</g>
<!-- INF1383 -->
<g id="node13" class="node">
<title>INF1383</title>
<polygon fill="none" stroke="black" points="179.5,-446 48.5,-446 48.5,-408 179.5,-408 179.5,-446"/>
<text text-anchor="middle" x="114" y="-430.8" font-family="Times,serif" font-size="14.00">INF1383</text>
<text text-anchor="middle" x="114" y="-415.8" font-family="Times,serif" font-size="14.00">Banco de Dados</text>
</g>
<!-- INF1012&#45;&gt;INF1383 -->
<g id="edge5" class="edge">
<title>INF1012&#45;&gt;INF1383</title>
<path fill="none" stroke="black" d="M92.32,-481.83C95.49,-473.96 99.27,-464.57 102.78,-455.85"/>
<polygon fill="black" stroke="black" points="106.09,-457 106.58,-446.41 99.6,-454.38 106.09,-457"/>
</g>
<!-- INF1009 -->
<g id="node3" class="node">
<title>INF1009</title>
<polygon fill="none" stroke="black" points="1118.5,-520 925.5,-520 925.5,-482 1118.5,-482 1118.5,-520"/>
<text text-anchor="middle" x="1022" y="-504.8" font-family="Times,serif" font-size="14.00">INF1009</text>
<text text-anchor="middle" x="1022" y="-489.8" font-family="Times,serif" font-size="14.00">Lógica para Computação</text>
</g>
<!-- INF1022 -->
<g id="node27" class="node">
<title>INF1022</title>
<polygon fill="none" stroke="black" points="1252,-446 998,-446 998,-408 1252,-408 1252,-446"/>
<text text-anchor="middle" x="1125" y="-430.8" font-family="Times,serif" font-size="14.00">INF1022</text>
<text text-anchor="middle" x="1125" y="-415.8" font-family="Times,serif" font-size="14.00">Analisadores Léxicos e Sintáticos</text>
</g>
<!-- INF1009&#45;&gt;INF1022 -->
<g id="edge22" class="edge">
<title>INF1009&#45;&gt;INF1022</title>
<path fill="none" stroke="black" d="M1047.99,-481.83C1060.92,-472.79 1076.72,-461.75 1090.64,-452.02"/>
<polygon fill="black" stroke="black" points="1092.83,-454.76 1099.02,-446.16 1088.82,-449.02 1092.83,-454.76"/>
</g>
<!-- INF1031 -->
<g id="node4" class="node">
<title>INF1031</title>
<polygon fill="none" stroke="black" points="1037,-38 837,-38 837,0 1037,0 1037,-38"/>
<text text-anchor="middle" x="937" y="-22.8" font-family="Times,serif" font-size="14.00">INF1031</text>
<text text-anchor="middle" x="937" y="-7.8" font-family="Times,serif" font-size="14.00">Introdução à Computação</text>
</g>
<!-- MAT1157 -->
<g id="node5" class="node">
<title>MAT1157</title>
<polygon fill="none" stroke="black" points="1620.5,-668 1417.5,-668 1417.5,-630 1620.5,-630 1620.5,-668"/>
<text text-anchor="middle" x="1519" y="-652.8" font-family="Times,serif" font-size="14.00">MAT1157</text>
<text text-anchor="middle" x="1519" y="-637.8" font-family="Times,serif" font-size="14.00">Cálculo de uma Variável A</text>
</g>
<!-- MAT1158 -->
<g id="node11" class="node">
<title>MAT1158</title>
<polygon fill="none" stroke="black" points="1524,-594 1330,-594 1330,-556 1524,-556 1524,-594"/>
<text text-anchor="middle" x="1427" y="-578.8" font-family="Times,serif" font-size="14.00">MAT1158</text>
<text text-anchor="middle" x="1427" y="-563.8" font-family="Times,serif" font-size="14.00">Cálculo a uma Variável B</text>
</g>
<!-- MAT1157&#45;&gt;MAT1158 -->
<g id="edge2" class="edge">
<title>MAT1157&#45;&gt;MAT1158</title>
<path fill="none" stroke="black" d="M1495.78,-629.83C1484.45,-620.96 1470.65,-610.16 1458.4,-600.57"/>
<polygon fill="black" stroke="black" points="1460.24,-597.57 1450.21,-594.16 1455.93,-603.08 1460.24,-597.57"/>
</g>
<!-- MAT1250 -->
<g id="node12" class="node">
<title>MAT1250</title>
<polygon fill="none" stroke="black" points="1679.5,-594 1542.5,-594 1542.5,-556 1679.5,-556 1679.5,-594"/>
<text text-anchor="middle" x="1611" y="-578.8" font-family="Times,serif" font-size="14.00">MAT1250</text>
<text text-anchor="middle" x="1611" y="-563.8" font-family="Times,serif" font-size="14.00">Álgebra Linear A</text>
</g>
<!-- MAT1157&#45;&gt;MAT1250 -->
<g id="edge3" class="edge">
<title>MAT1157&#45;&gt;MAT1250</title>
<path fill="none" stroke="black" d="M1542.22,-629.83C1553.55,-620.96 1567.35,-610.16 1579.6,-600.57"/>
<polygon fill="black" stroke="black" points="1582.07,-603.08 1587.79,-594.16 1577.76,-597.57 1582.07,-603.08"/>
</g>
<!-- MAT1320 -->
<g id="node6" class="node">
<title>MAT1320</title>
<polygon fill="none" stroke="black" points="448,-520 188,-520 188,-482 448,-482 448,-520"/>
<text text-anchor="middle" x="318" y="-504.8" font-family="Times,serif" font-size="14.00">MAT1320</text>
<text text-anchor="middle" x="318" y="-489.8" font-family="Times,serif" font-size="14.00">Introdução à Matemática Discreta</text>
</g>
<!-- INF1631 -->
<g id="node14" class="node">
<title>INF1631</title>
<polygon fill="none" stroke="black" points="372,-446 206,-446 206,-408 372,-408 372,-446"/>
<text text-anchor="middle" x="289" y="-430.8" font-family="Times,serif" font-size="14.00">INF1631</text>
<text text-anchor="middle" x="289" y="-415.8" font-family="Times,serif" font-size="14.00">Estruturas Discretas</text>
</g>
<!-- MAT1320&#45;&gt;INF1631 -->
<g id="edge7" class="edge">
<title>MAT1320&#45;&gt;INF1631</title>
<path fill="none" stroke="black" d="M310.68,-481.83C307.51,-473.96 303.73,-464.57 300.22,-455.85"/>
<polygon fill="black" stroke="black" points="303.4,-454.38 296.42,-446.41 296.91,-457 303.4,-454.38"/>
</g>
<!-- CRE1100 -->
<g id="node7" class="node">
<title>CRE1100</title>
<polygon fill="none" stroke="black" points="1400,-973 1134,-973 1134,-935 1400,-935 1400,-973"/>
<text text-anchor="middle" x="1267" y="-957.8" font-family="Times,serif" font-size="14.00">CRE1100</text>
<text text-anchor="middle" x="1267" y="-942.8" font-family="Times,serif" font-size="14.00">O Humano e o Fenômeno Religioso</text>
</g>
<!-- CRE0710 -->
<g id="node19" class="node">
<title>CRE0710</title>
<polygon fill="none" stroke="black" points="1368.5,-899 1165.5,-899 1165.5,-861 1368.5,-861 1368.5,-899"/>
<text text-anchor="middle" x="1267" y="-883.8" font-family="Times,serif" font-size="14.00">CRE0710</text>
<text text-anchor="middle" x="1267" y="-868.8" font-family="Times,serif" font-size="14.00">Optativas de Cristianismo</text>
</g>
<!-- CRE1100&#45;&gt;CRE0710 -->
<g id="edge12" class="edge">
<title>CRE1100&#45;&gt;CRE0710</title>
<path fill="none" stroke="black" d="M1267,-934.83C1267,-927.13 1267,-917.97 1267,-909.42"/>
<polygon fill="black" stroke="black" points="1270.5,-909.41 1267,-899.41 1263.5,-909.41 1270.5,-909.41"/>
</g>
<!-- INF0380 -->
<g id="node8" class="node">
<title>INF0380</title>
<polygon fill="none" stroke="black" points="1139,-131 837,-131 837,-93 1139,-93 1139,-131"/>
<text text-anchor="middle" x="988" y="-115.8" font-family="Times,serif" font-size="14.00">INF0380</text>
<text text-anchor="middle" x="988" y="-100.8" font-family="Times,serif" font-size="14.00">Optativas de Comp e Produção de Texto</text>
</g>
<!-- INF1403 -->
<g id="node9" class="node">
<title>INF1403</title>
<polygon fill="none" stroke="black" points="753,-844 527,-844 527,-806 753,-806 753,-844"/>
<text text-anchor="middle" x="640" y="-828.8" font-family="Times,serif" font-size="14.00">INF1403</text>
<text text-anchor="middle" x="640" y="-813.8" font-family="Times,serif" font-size="14.00">Intr Int Humano&#45;Computador</text>
</g>
<!-- INF1007&#45;&gt;INF1383 -->
<g id="edge4" class="edge">
<title>INF1007&#45;&gt;INF1383</title>
<path fill="none" stroke="black" d="M678.76,-496.1C576.88,-489.29 370.29,-473.28 197,-446 194.51,-445.61 191.99,-445.19 189.45,-444.75"/>
<polygon fill="black" stroke="black" points="190.03,-441.3 179.56,-442.95 188.77,-448.18 190.03,-441.3"/>
</g>
<!-- INF1007&#45;&gt;INF1631 -->
<g id="edge6" class="edge">
<title>INF1007&#45;&gt;INF1631</title>
<path fill="none" stroke="black" d="M678.93,-491.44C608.89,-481.73 492.22,-464.98 382.16,-446.16"/>
<polygon fill="black" stroke="black" points="382.66,-442.7 372.21,-444.45 381.48,-449.6 382.66,-442.7"/>
</g>
<!-- INF1010 -->
<g id="node15" class="node">
<title>INF1010</title>
<polygon fill="none" stroke="black" points="635.5,-446 390.5,-446 390.5,-408 635.5,-408 635.5,-446"/>
<text text-anchor="middle" x="513" y="-430.8" font-family="Times,serif" font-size="14.00">INF1010</text>
<text text-anchor="middle" x="513" y="-415.8" font-family="Times,serif" font-size="14.00">Estruturas de Dados Avançadas</text>
</g>
<!-- INF1007&#45;&gt;INF1010 -->
<g id="edge8" class="edge">
<title>INF1007&#45;&gt;INF1010</title>
<path fill="none" stroke="black" d="M684.51,-481.92C652.8,-471.95 613.25,-459.52 580.12,-449.1"/>
<polygon fill="black" stroke="black" points="581.1,-445.74 570.51,-446.08 579,-452.42 581.1,-445.74"/>
</g>
<!-- INF1301 -->
<g id="node16" class="node">
<title>INF1301</title>
<polygon fill="none" stroke="black" points="830,-446 654,-446 654,-408 830,-408 830,-446"/>
<text text-anchor="middle" x="742" y="-430.8" font-family="Times,serif" font-size="14.00">INF1301</text>
<text text-anchor="middle" x="742" y="-415.8" font-family="Times,serif" font-size="14.00">Programação Modular</text>
</g>
<!-- INF1007&#45;&gt;INF1301 -->
<g id="edge9" class="edge">
<title>INF1007&#45;&gt;INF1301</title>
<path fill="none" stroke="black" d="M742,-481.83C742,-474.13 742,-464.97 742,-456.42"/>
<polygon fill="black" stroke="black" points="745.5,-456.41 742,-446.41 738.5,-456.41 745.5,-456.41"/>
</g>
<!-- INF1018 -->
<g id="node17" class="node">
<title>INF1018</title>
<polygon fill="none" stroke="black" points="980,-446 848,-446 848,-408 980,-408 980,-446"/>
<text text-anchor="middle" x="914" y="-430.8" font-family="Times,serif" font-size="14.00">INF1018</text>
<text text-anchor="middle" x="914" y="-415.8" font-family="Times,serif" font-size="14.00">Software Básico</text>
</g>
<!-- INF1007&#45;&gt;INF1018 -->
<g id="edge10" class="edge">
<title>INF1007&#45;&gt;INF1018</title>
<path fill="none" stroke="black" d="M785.4,-481.83C808.51,-472.16 837.1,-460.19 861.46,-449.99"/>
<polygon fill="black" stroke="black" points="863.04,-453.13 870.91,-446.04 860.33,-446.67 863.04,-453.13"/>
</g>
<!-- INF1007&#45;&gt;INF1022 -->
<g id="edge21" class="edge">
<title>INF1007&#45;&gt;INF1022</title>
<path fill="none" stroke="black" d="M805.24,-488.11C863.26,-477.2 950.35,-460.83 1018.99,-447.93"/>
<polygon fill="black" stroke="black" points="1019.8,-451.34 1028.98,-446.05 1018.51,-444.46 1019.8,-451.34"/>
</g>
<!-- MAT1162 -->
<g id="node18" class="node">
<title>MAT1162</title>
<polygon fill="none" stroke="black" points="1670,-520 1460,-520 1460,-482 1670,-482 1670,-520"/>
<text text-anchor="middle" x="1565" y="-504.8" font-family="Times,serif" font-size="14.00">MAT1162</text>
<text text-anchor="middle" x="1565" y="-489.8" font-family="Times,serif" font-size="14.00">Cálculo a Várias Variáveis I</text>
</g>
<!-- MAT1158&#45;&gt;MAT1162 -->
<g id="edge11" class="edge">
<title>MAT1158&#45;&gt;MAT1162</title>
<path fill="none" stroke="black" d="M1461.82,-555.83C1479.8,-546.45 1501.92,-534.91 1521.06,-524.92"/>
<polygon fill="black" stroke="black" points="1522.94,-527.89 1530.19,-520.16 1519.7,-521.69 1522.94,-527.89"/>
</g>
<!-- MAT1158&#45;&gt;INF0377 -->
<g id="edge20" class="edge">
<title>MAT1158&#45;&gt;INF0377</title>
<path fill="none" stroke="black" d="M1392.18,-555.83C1374.2,-546.45 1352.08,-534.91 1332.94,-524.92"/>
<polygon fill="black" stroke="black" points="1334.3,-521.69 1323.81,-520.16 1331.06,-527.89 1334.3,-521.69"/>
</g>
<!-- INF1028 -->
<g id="node28" class="node">
<title>INF1028</title>
<polygon fill="none" stroke="black" points="575,-298 339,-298 339,-260 575,-260 575,-298"/>
<text text-anchor="middle" x="457" y="-282.8" font-family="Times,serif" font-size="14.00">INF1028</text>
<text text-anchor="middle" x="457" y="-267.8" font-family="Times,serif" font-size="14.00">Projeto e Construção Sistemas</text>
</g>
<!-- INF1383&#45;&gt;INF1028 -->
<g id="edge24" class="edge">
<title>INF1383&#45;&gt;INF1028</title>
<path fill="none" stroke="black" d="M112.21,-407.97C111.22,-387.08 113.14,-353.11 133,-334 160.92,-307.13 250.5,-293.57 328.41,-286.76"/>
<polygon fill="black" stroke="black" points="329.16,-290.21 338.83,-285.89 328.57,-283.24 329.16,-290.21"/>
</g>
<!-- INF1721 -->
<g id="node30" class="node">
<title>INF1721</title>
<polygon fill="none" stroke="black" points="315.5,-372 142.5,-372 142.5,-334 315.5,-334 315.5,-372"/>
<text text-anchor="middle" x="229" y="-356.8" font-family="Times,serif" font-size="14.00">INF1721</text>
<text text-anchor="middle" x="229" y="-341.8" font-family="Times,serif" font-size="14.00">Análise de Algoritmos</text>
</g>
<!-- INF1631&#45;&gt;INF1721 -->
<g id="edge28" class="edge">
<title>INF1631&#45;&gt;INF1721</title>
<path fill="none" stroke="black" d="M273.86,-407.83C266.88,-399.45 258.46,-389.35 250.81,-380.17"/>
<polygon fill="black" stroke="black" points="253.44,-377.85 244.34,-372.41 248.06,-382.34 253.44,-377.85"/>
</g>
<!-- INF1010&#45;&gt;INF1721 -->
<g id="edge27" class="edge">
<title>INF1010&#45;&gt;INF1721</title>
<path fill="none" stroke="black" d="M441.7,-407.92C401.7,-397.78 351.64,-385.09 310.13,-374.57"/>
<polygon fill="black" stroke="black" points="310.88,-371.15 300.33,-372.08 309.16,-377.93 310.88,-371.15"/>
</g>
<!-- INF1027 -->
<g id="node20" class="node">
<title>INF1027</title>
<polygon fill="none" stroke="black" points="1134.5,-372 903.5,-372 903.5,-334 1134.5,-334 1134.5,-372"/>
<text text-anchor="middle" x="1019" y="-356.8" font-family="Times,serif" font-size="14.00">INF1027</text>
<text text-anchor="middle" x="1019" y="-341.8" font-family="Times,serif" font-size="14.00">Testes e Medidas de Software</text>
</g>
<!-- INF1301&#45;&gt;INF1027 -->
<g id="edge13" class="edge">
<title>INF1301&#45;&gt;INF1027</title>
<path fill="none" stroke="black" d="M811.54,-407.92C850.48,-397.8 899.18,-385.14 939.61,-374.64"/>
<polygon fill="black" stroke="black" points="940.63,-377.99 949.43,-372.08 938.87,-371.21 940.63,-377.99"/>
</g>
<!-- INF1629 -->
<g id="node23" class="node">
<title>INF1629</title>
<polygon fill="none" stroke="black" points="885.5,-372 598.5,-372 598.5,-334 885.5,-334 885.5,-372"/>
<text text-anchor="middle" x="742" y="-356.8" font-family="Times,serif" font-size="14.00">INF1629</text>
<text text-anchor="middle" x="742" y="-341.8" font-family="Times,serif" font-size="14.00">Princípios de Engenharia de Software</text>
</g>
<!-- INF1301&#45;&gt;INF1629 -->
<g id="edge16" class="edge">
<title>INF1301&#45;&gt;INF1629</title>
<path fill="none" stroke="black" d="M742,-407.83C742,-400.13 742,-390.97 742,-382.42"/>
<polygon fill="black" stroke="black" points="745.5,-382.41 742,-372.41 738.5,-382.41 745.5,-382.41"/>
</g>
<!-- INF1636 -->
<g id="node24" class="node">
<title>INF1636</title>
<polygon fill="none" stroke="black" points="580,-372 334,-372 334,-334 580,-334 580,-372"/>
<text text-anchor="middle" x="457" y="-356.8" font-family="Times,serif" font-size="14.00">INF1636</text>
<text text-anchor="middle" x="457" y="-341.8" font-family="Times,serif" font-size="14.00">Programação Orientada Objetos</text>
</g>
<!-- INF1301&#45;&gt;INF1636 -->
<g id="edge17" class="edge">
<title>INF1301&#45;&gt;INF1636</title>
<path fill="none" stroke="black" d="M670.45,-407.92C630.3,-397.78 580.07,-385.09 538.42,-374.57"/>
<polygon fill="black" stroke="black" points="539.13,-371.14 528.58,-372.08 537.42,-377.93 539.13,-371.14"/>
</g>
<!-- INF1029 -->
<g id="node21" class="node">
<title>INF1029</title>
<polygon fill="none" stroke="black" points="1477.5,-372 1152.5,-372 1152.5,-334 1477.5,-334 1477.5,-372"/>
<text text-anchor="middle" x="1315" y="-356.8" font-family="Times,serif" font-size="14.00">INF1029</text>
<text text-anchor="middle" x="1315" y="-341.8" font-family="Times,serif" font-size="14.00">Introdução à Arquitetura de Computadores</text>
</g>
<!-- INF1018&#45;&gt;INF1029 -->
<g id="edge14" class="edge">
<title>INF1018&#45;&gt;INF1029</title>
<path fill="none" stroke="black" d="M980.2,-409.84C983.17,-409.2 986.11,-408.58 989,-408 1052.65,-395.11 1123.75,-383.06 1183.27,-373.63"/>
<polygon fill="black" stroke="black" points="1184.15,-377.03 1193.48,-372.02 1183.06,-370.12 1184.15,-377.03"/>
</g>
<!-- INF1316 -->
<g id="node22" class="node">
<title>INF1316</title>
<polygon fill="none" stroke="black" points="1674.5,-372 1495.5,-372 1495.5,-334 1674.5,-334 1674.5,-372"/>
<text text-anchor="middle" x="1585" y="-356.8" font-family="Times,serif" font-size="14.00">INF1316</text>
<text text-anchor="middle" x="1585" y="-341.8" font-family="Times,serif" font-size="14.00">Sistemas Operacionais</text>
</g>
<!-- INF1018&#45;&gt;INF1316 -->
<g id="edge15" class="edge">
<title>INF1018&#45;&gt;INF1316</title>
<path fill="none" stroke="black" d="M980.14,-409.51C983.12,-408.96 986.09,-408.45 989,-408 1204.64,-374.54 1264.54,-399.11 1485.52,-371.97"/>
<polygon fill="black" stroke="black" points="1486,-375.43 1495.49,-370.72 1485.13,-368.49 1486,-375.43"/>
</g>
<!-- CRE1141 -->
<g id="node25" class="node">
<title>CRE1141</title>
<polygon fill="none" stroke="black" points="1317.5,-825 1216.5,-825 1216.5,-787 1317.5,-787 1317.5,-825"/>
<text text-anchor="middle" x="1267" y="-809.8" font-family="Times,serif" font-size="14.00">CRE1141</text>
<text text-anchor="middle" x="1267" y="-794.8" font-family="Times,serif" font-size="14.00">Ética Crista</text>
</g>
<!-- CRE0710&#45;&gt;CRE1141 -->
<g id="edge18" class="edge">
<title>CRE0710&#45;&gt;CRE1141</title>
<path fill="none" stroke="black" d="M1267,-860.83C1267,-853.13 1267,-843.97 1267,-835.42"/>
<polygon fill="black" stroke="black" points="1270.5,-835.41 1267,-825.41 1263.5,-835.41 1270.5,-835.41"/>
</g>
<!-- INF1027&#45;&gt;INF1028 -->
<g id="edge23" class="edge">
<title>INF1027&#45;&gt;INF1028</title>
<path fill="none" stroke="black" d="M903.24,-335.25C900.13,-334.82 897.04,-334.41 894,-334 790.22,-320.12 672.39,-305.63 585.26,-295.16"/>
<polygon fill="black" stroke="black" points="585.67,-291.69 575.32,-293.97 584.83,-298.64 585.67,-291.69"/>
</g>
<!-- INF1317 -->
<g id="node29" class="node">
<title>INF1317</title>
<polygon fill="none" stroke="black" points="1680.5,-298 1489.5,-298 1489.5,-260 1680.5,-260 1680.5,-298"/>
<text text-anchor="middle" x="1585" y="-282.8" font-family="Times,serif" font-size="14.00">INF1317</text>
<text text-anchor="middle" x="1585" y="-267.8" font-family="Times,serif" font-size="14.00">Redes de Computadores</text>
</g>
<!-- INF1316&#45;&gt;INF1317 -->
<g id="edge26" class="edge">
<title>INF1316&#45;&gt;INF1317</title>
<path fill="none" stroke="black" d="M1585,-333.83C1585,-326.13 1585,-316.97 1585,-308.42"/>
<polygon fill="black" stroke="black" points="1588.5,-308.41 1585,-298.41 1581.5,-308.41 1588.5,-308.41"/>
</g>
<!-- INF1636&#45;&gt;INF1028 -->
<g id="edge25" class="edge">
<title>INF1636&#45;&gt;INF1028</title>
<path fill="none" stroke="black" d="M457,-333.83C457,-326.13 457,-316.97 457,-308.42"/>
<polygon fill="black" stroke="black" points="460.5,-308.41 457,-298.41 453.5,-308.41 460.5,-308.41"/>
</g>
<!-- CRE1175 -->
<g id="node33" class="node">
<title>CRE1175</title>
<polygon fill="none" stroke="black" points="1417.5,-751 1116.5,-751 1116.5,-713 1417.5,-713 1417.5,-751"/>
<text text-anchor="middle" x="1267" y="-735.8" font-family="Times,serif" font-size="14.00">CRE1175</text>
<text text-anchor="middle" x="1267" y="-720.8" font-family="Times,serif" font-size="14.00">Ética Socioambiental Direitos Humanos</text>
</g>
<!-- CRE1141&#45;&gt;CRE1175 -->
<g id="edge30" class="edge">
<title>CRE1141&#45;&gt;CRE1175</title>
<path fill="none" stroke="black" d="M1267,-786.83C1267,-779.13 1267,-769.97 1267,-761.42"/>
<polygon fill="black" stroke="black" points="1270.5,-761.41 1267,-751.41 1263.5,-761.41 1270.5,-761.41"/>
</g>
<!-- INF1033 -->
<g id="node32" class="node">
<title>INF1033</title>
<polygon fill="none" stroke="black" points="609.5,-224 304.5,-224 304.5,-186 609.5,-186 609.5,-224"/>
<text text-anchor="middle" x="457" y="-208.8" font-family="Times,serif" font-size="14.00">INF1033</text>
<text text-anchor="middle" x="457" y="-193.8" font-family="Times,serif" font-size="14.00">Estágio Supervisionado em Computação</text>
</g>
<!-- INF1028&#45;&gt;INF1033 -->
<g id="edge29" class="edge">
<title>INF1028&#45;&gt;INF1033</title>
<path fill="none" stroke="black" d="M457,-259.83C457,-252.13 457,-242.97 457,-234.42"/>
<polygon fill="black" stroke="black" points="460.5,-234.41 457,-224.41 453.5,-234.41 460.5,-234.41"/>
</g>
<!-- INF1014 -->
<g id="node31" class="node">
<title>INF1014</title>
<polygon fill="none" stroke="black" points="747.5,-38 650.5,-38 650.5,0 747.5,0 747.5,-38"/>
<text text-anchor="middle" x="699" y="-22.8" font-family="Times,serif" font-size="14.00">INF1014</text>
<text text-anchor="middle" x="699" y="-7.8" font-family="Times,serif" font-size="14.00">Seminários</text>
</g>
<!-- FIL0300 -->
<g id="node34" class="node">
<title>FIL0300</title>
<polygon fill="none" stroke="black" points="1046.5,-844 805.5,-844 805.5,-806 1046.5,-806 1046.5,-844"/>
<text text-anchor="middle" x="926" y="-828.8" font-family="Times,serif" font-size="14.00">FIL0300</text>
<text text-anchor="middle" x="926" y="-813.8" font-family="Times,serif" font-size="14.00">Optativas de Filosofia &#45; CB/CTC</text>
</g>
<!-- INF1950 -->
<g id="node35" class="node">
<title>INF1950</title>
<polygon fill="none" stroke="black" points="1051.5,-1011 932.5,-1011 932.5,-973 1051.5,-973 1051.5,-1011"/>
<text text-anchor="middle" x="992" y="-995.8" font-family="Times,serif" font-size="14.00">INF1950</text>
<text text-anchor="middle" x="992" y="-980.8" font-family="Times,serif" font-size="14.00">Projeto Final I</text>
</g>
<!-- INF1951 -->
<g id="node37" class="node">
<title>INF1951</title>
<polygon fill="none" stroke="black" points="1054,-937 930,-937 930,-899 1054,-899 1054,-937"/>
<text text-anchor="middle" x="992" y="-921.8" font-family="Times,serif" font-size="14.00">INF1951</text>
<text text-anchor="middle" x="992" y="-906.8" font-family="Times,serif" font-size="14.00">Projeto Final II</text>
</g>
<!-- INF1950&#45;&gt;INF1951 -->
<g id="edge31" class="edge">
<title>INF1950&#45;&gt;INF1951</title>
<path fill="none" stroke="black" d="M992,-972.83C992,-965.13 992,-955.97 992,-947.42"/>
<polygon fill="black" stroke="black" points="995.5,-947.41 992,-937.41 988.5,-947.41 995.5,-947.41"/>
</g>
<!-- INF0381 -->
<g id="node36" class="node">
<title>INF0381</title>
<polygon fill="none" stroke="black" points="786.5,-131 495.5,-131 495.5,-93 786.5,-93 786.5,-131"/>
<text text-anchor="middle" x="641" y="-115.8" font-family="Times,serif" font-size="14.00">INF0381</text>
<text text-anchor="middle" x="641" y="-100.8" font-family="Times,serif" font-size="14.00">Optativas de Direito para Computação</text>
</g>
<!-- ACP0900 -->
<g id="node38" class="node">
<title>ACP0900</title>
<polygon fill="none" stroke="black" points="652,-751 434,-751 434,-713 652,-713 652,-751"/>
<text text-anchor="middle" x="543" y="-735.8" font-family="Times,serif" font-size="14.00">ACP0900</text>
<text text-anchor="middle" x="543" y="-720.8" font-family="Times,serif" font-size="14.00">Atividades Complementares</text>
</g>
<!-- ELL0900 -->
<g id="node39" class="node">
<title>ELL0900</title>
<polygon fill="none" stroke="black" points="1065,-751 713,-751 713,-713 1065,-713 1065,-751"/>
<text text-anchor="middle" x="889" y="-735.8" font-family="Times,serif" font-size="14.00">ELL0900</text>
<text text-anchor="middle" x="889" y="-720.8" font-family="Times,serif" font-size="14.00">Eletivas Livres &#45; Dentro/Fora do Departamento</text>
</g>
<!-- INF0378 -->
<g id="node40" class="node">
<title>INF0378</title>
<polygon fill="none" stroke="black" points="1510.5,-100 1209.5,-100 1209.5,-62 1510.5,-62 1510.5,-100"/>
<text text-anchor="middle" x="1360" y="-84.8" font-family="Times,serif" font-size="14.00">INF0378</text>
<text text-anchor="middle" x="1360" y="-69.8" font-family="Times,serif" font-size="14.00">Optativas de Formação em Computação</text>
</g>
<!-- INF0379 -->
<g id="node41" class="node">
<title>INF0379</title>
<polygon fill="none" stroke="black" points="603,-38 403,-38 403,0 603,0 603,-38"/>
<text text-anchor="middle" x="503" y="-22.8" font-family="Times,serif" font-size="14.00">INF0379</text>
<text text-anchor="middle" x="503" y="-7.8" font-family="Times,serif" font-size="14.00">Optativas de Computação</text>
</g>
</g>
</svg>
