<?xml version="1.0" encoding="UTF-8" standalone="no"?>
<!DOCTYPE svg PUBLIC "-//W3C//DTD SVG 1.1//EN"
 "http://www.w3.org/Graphics/SVG/1.1/DTD/svg11.dtd">
<!-- Generated by graphviz version 2.43.0 (0)
 -->
<!-- Title: %3 Pages: 1 -->
<svg width="2318pt" height="1171pt"
 viewBox="0.00 0.00 2318.00 1171.00" xmlns="http://www.w3.org/2000/svg" xmlns:xlink="http://www.w3.org/1999/xlink">
<g id="graph0" class="graph" transform="scale(1 1) rotate(0) translate(4 1167)">
<title>%3</title>
<polygon fill="white" stroke="transparent" points="-4,4 -4,-1167 2314,-1167 2314,4 -4,4"/>
<!-- ACP0900 -->
<g id="node1" class="node">
<title>ACP0900</title>
<polygon fill="none" stroke="black" points="2243,-38 2025,-38 2025,0 2243,0 2243,-38"/>
<text text-anchor="middle" x="2134" y="-22.8" font-family="Times,serif" font-size="14.00">ACP0900</text>
<text text-anchor="middle" x="2134" y="-7.8" font-family="Times,serif" font-size="14.00">Atividades Complementares</text>
</g>
<!-- ELL0900 -->
<g id="node2" class="node">
<title>ELL0900</title>
<polygon fill="none" stroke="black" points="2310,-94 1958,-94 1958,-56 2310,-56 2310,-94"/>
<text text-anchor="middle" x="2134" y="-78.8" font-family="Times,serif" font-size="14.00">ELL0900</text>
<text text-anchor="middle" x="2134" y="-63.8" font-family="Times,serif" font-size="14.00">Eletivas Livres &#45; Dentro/Fora do Departamento</text>
</g>
<!-- INF0378 -->
<g id="node3" class="node">
<title>INF0378</title>
<polygon fill="none" stroke="black" points="2284.5,-150 1983.5,-150 1983.5,-112 2284.5,-112 2284.5,-150"/>
<text text-anchor="middle" x="2134" y="-134.8" font-family="Times,serif" font-size="14.00">INF0378</text>
<text text-anchor="middle" x="2134" y="-119.8" font-family="Times,serif" font-size="14.00">Optativas de Formação em Computação</text>
</g>
<!-- INF0379 -->
<g id="node4" class="node">
<title>INF0379</title>
<polygon fill="none" stroke="black" points="2234,-206 2034,-206 2034,-168 2234,-168 2234,-206"/>
<text text-anchor="middle" x="2134" y="-190.8" font-family="Times,serif" font-size="14.00">INF0379</text>
<text text-anchor="middle" x="2134" y="-175.8" font-family="Times,serif" font-size="14.00">Optativas de Computação</text>
</g>
<!-- INF0381 -->
<g id="node5" class="node">
<title>INF0381</title>
<polygon fill="none" stroke="black" points="2279.5,-262 1988.5,-262 1988.5,-224 2279.5,-224 2279.5,-262"/>
<text text-anchor="middle" x="2134" y="-246.8" font-family="Times,serif" font-size="14.00">INF0381</text>
<text text-anchor="middle" x="2134" y="-231.8" font-family="Times,serif" font-size="14.00">Optativas de Direito para Computação</text>
</g>
<!-- INF1951 -->
<g id="node6" class="node">
<title>INF1951</title>
<polygon fill="none" stroke="black" points="2196,-318 2072,-318 2072,-280 2196,-280 2196,-318"/>
<text text-anchor="middle" x="2134" y="-302.8" font-family="Times,serif" font-size="14.00">INF1951</text>
<text text-anchor="middle" x="2134" y="-287.8" font-family="Times,serif" font-size="14.00">Projeto Final II</text>
</g>
<!-- CRE1175 -->
<g id="node7" class="node">
<title>CRE1175</title>
<polygon fill="none" stroke="black" points="1920,-374 1619,-374 1619,-336 1920,-336 1920,-374"/>
<text text-anchor="middle" x="1769.5" y="-358.8" font-family="Times,serif" font-size="14.00">CRE1175</text>
<text text-anchor="middle" x="1769.5" y="-343.8" font-family="Times,serif" font-size="14.00">Ética Socioambiental Direitos Humanos</text>
</g>
<!-- FIL0300 -->
<g id="node8" class="node">
<title>FIL0300</title>
<polygon fill="none" stroke="black" points="1890,-477 1649,-477 1649,-439 1890,-439 1890,-477"/>
<text text-anchor="middle" x="1769.5" y="-461.8" font-family="Times,serif" font-size="14.00">FIL0300</text>
<text text-anchor="middle" x="1769.5" y="-446.8" font-family="Times,serif" font-size="14.00">Optativas de Filosofia &#45; CB/CTC</text>
</g>
<!-- INF1950 -->
<g id="node9" class="node">
<title>INF1950</title>
<polygon fill="none" stroke="black" points="1829,-318 1710,-318 1710,-280 1829,-280 1829,-318"/>
<text text-anchor="middle" x="1769.5" y="-302.8" font-family="Times,serif" font-size="14.00">INF1950</text>
<text text-anchor="middle" x="1769.5" y="-287.8" font-family="Times,serif" font-size="14.00">Projeto Final I</text>
</g>
<!-- INF1950&#45;&gt;INF1951 -->
<g id="edge31" class="edge">
<title>INF1950&#45;&gt;INF1951</title>
<path fill="none" stroke="black" d="M1829.14,-299C1892.52,-299 1993.54,-299 2061.52,-299"/>
<polygon fill="black" stroke="black" points="2061.71,-302.5 2071.71,-299 2061.71,-295.5 2061.71,-302.5"/>
</g>
<!-- INF1014 -->
<g id="node10" class="node">
<title>INF1014</title>
<polygon fill="none" stroke="black" points="1818,-627 1721,-627 1721,-589 1818,-589 1818,-627"/>
<text text-anchor="middle" x="1769.5" y="-611.8" font-family="Times,serif" font-size="14.00">INF1014</text>
<text text-anchor="middle" x="1769.5" y="-596.8" font-family="Times,serif" font-size="14.00">Seminários</text>
</g>
<!-- INF1033 -->
<g id="node11" class="node">
<title>INF1033</title>
<polygon fill="none" stroke="black" points="1922,-730 1617,-730 1617,-692 1922,-692 1922,-730"/>
<text text-anchor="middle" x="1769.5" y="-714.8" font-family="Times,serif" font-size="14.00">INF1033</text>
<text text-anchor="middle" x="1769.5" y="-699.8" font-family="Times,serif" font-size="14.00">Estágio Supervisionado em Computação</text>
</g>
<!-- CRE1141 -->
<g id="node12" class="node">
<title>CRE1141</title>
<polygon fill="none" stroke="black" points="1479,-374 1378,-374 1378,-336 1479,-336 1479,-374"/>
<text text-anchor="middle" x="1428.5" y="-358.8" font-family="Times,serif" font-size="14.00">CRE1141</text>
<text text-anchor="middle" x="1428.5" y="-343.8" font-family="Times,serif" font-size="14.00">Ética Crista</text>
</g>
<!-- CRE1141&#45;&gt;CRE1175 -->
<g id="edge30" class="edge">
<title>CRE1141&#45;&gt;CRE1175</title>
<path fill="none" stroke="black" d="M1479.16,-355C1513.67,-355 1561.75,-355 1608.82,-355"/>
<polygon fill="black" stroke="black" points="1608.84,-358.5 1618.84,-355 1608.84,-351.5 1608.84,-358.5"/>
</g>
<!-- INF0377 -->
<g id="node13" class="node">
<title>INF0377</title>
<polygon fill="none" stroke="black" points="1581,-552 1276,-552 1276,-514 1581,-514 1581,-552"/>
<text text-anchor="middle" x="1428.5" y="-536.8" font-family="Times,serif" font-size="14.00">INF0377</text>
<text text-anchor="middle" x="1428.5" y="-521.8" font-family="Times,serif" font-size="14.00">Optativas de Probabilidade e Estatística</text>
</g>
<!-- INF1022 -->
<g id="node14" class="node">
<title>INF1022</title>
<polygon fill="none" stroke="black" points="1555.5,-1035 1301.5,-1035 1301.5,-997 1555.5,-997 1555.5,-1035"/>
<text text-anchor="middle" x="1428.5" y="-1019.8" font-family="Times,serif" font-size="14.00">INF1022</text>
<text text-anchor="middle" x="1428.5" y="-1004.8" font-family="Times,serif" font-size="14.00">Analisadores Léxicos e Sintáticos</text>
</g>
<!-- INF1028 -->
<g id="node15" class="node">
<title>INF1028</title>
<polygon fill="none" stroke="black" points="1546.5,-730 1310.5,-730 1310.5,-692 1546.5,-692 1546.5,-730"/>
<text text-anchor="middle" x="1428.5" y="-714.8" font-family="Times,serif" font-size="14.00">INF1028</text>
<text text-anchor="middle" x="1428.5" y="-699.8" font-family="Times,serif" font-size="14.00">Projeto e Construção Sistemas</text>
</g>
<!-- INF1028&#45;&gt;INF1033 -->
<g id="edge29" class="edge">
<title>INF1028&#45;&gt;INF1033</title>
<path fill="none" stroke="black" d="M1546.64,-711C1566.04,-711 1586.46,-711 1606.72,-711"/>
<polygon fill="black" stroke="black" points="1606.98,-714.5 1616.98,-711 1606.98,-707.5 1606.98,-714.5"/>
</g>
<!-- INF1317 -->
<g id="node16" class="node">
<title>INF1317</title>
<polygon fill="none" stroke="black" points="1524,-880 1333,-880 1333,-842 1524,-842 1524,-880"/>
<text text-anchor="middle" x="1428.5" y="-864.8" font-family="Times,serif" font-size="14.00">INF1317</text>
<text text-anchor="middle" x="1428.5" y="-849.8" font-family="Times,serif" font-size="14.00">Redes de Computadores</text>
</g>
<!-- INF1721 -->
<g id="node17" class="node">
<title>INF1721</title>
<polygon fill="none" stroke="black" points="1515,-965 1342,-965 1342,-927 1515,-927 1515,-965"/>
<text text-anchor="middle" x="1428.5" y="-949.8" font-family="Times,serif" font-size="14.00">INF1721</text>
<text text-anchor="middle" x="1428.5" y="-934.8" font-family="Times,serif" font-size="14.00">Análise de Algoritmos</text>
</g>
<!-- CRE0710 -->
<g id="node18" class="node">
<title>CRE0710</title>
<polygon fill="none" stroke="black" points="1179,-374 976,-374 976,-336 1179,-336 1179,-374"/>
<text text-anchor="middle" x="1077.5" y="-358.8" font-family="Times,serif" font-size="14.00">CRE0710</text>
<text text-anchor="middle" x="1077.5" y="-343.8" font-family="Times,serif" font-size="14.00">Optativas de Cristianismo</text>
</g>
<!-- CRE0710&#45;&gt;CRE1141 -->
<g id="edge18" class="edge">
<title>CRE0710&#45;&gt;CRE1141</title>
<path fill="none" stroke="black" d="M1179.45,-355C1240.28,-355 1315.71,-355 1367.32,-355"/>
<polygon fill="black" stroke="black" points="1367.63,-358.5 1377.63,-355 1367.63,-351.5 1367.63,-358.5"/>
</g>
<!-- INF1027 -->
<g id="node19" class="node">
<title>INF1027</title>
<polygon fill="none" stroke="black" points="1193,-618 962,-618 962,-580 1193,-580 1193,-618"/>
<text text-anchor="middle" x="1077.5" y="-602.8" font-family="Times,serif" font-size="14.00">INF1027</text>
<text text-anchor="middle" x="1077.5" y="-587.8" font-family="Times,serif" font-size="14.00">Testes e Medidas de Software</text>
</g>
<!-- INF1027&#45;&gt;INF1028 -->
<g id="edge23" class="edge">
<title>INF1027&#45;&gt;INF1028</title>
<path fill="none" stroke="black" d="M1193.16,-615.22C1209.04,-618.53 1225.03,-622.43 1240,-627 1290.79,-642.51 1345.92,-668.39 1383.17,-687.33"/>
<polygon fill="black" stroke="black" points="1381.74,-690.54 1392.24,-691.99 1384.94,-684.31 1381.74,-690.54"/>
</g>
<!-- INF1029 -->
<g id="node20" class="node">
<title>INF1029</title>
<polygon fill="none" stroke="black" points="1240,-824 915,-824 915,-786 1240,-786 1240,-824"/>
<text text-anchor="middle" x="1077.5" y="-808.8" font-family="Times,serif" font-size="14.00">INF1029</text>
<text text-anchor="middle" x="1077.5" y="-793.8" font-family="Times,serif" font-size="14.00">Introdução à Arquitetura de Computadores</text>
</g>
<!-- INF1316 -->
<g id="node21" class="node">
<title>INF1316</title>
<polygon fill="none" stroke="black" points="1167,-880 988,-880 988,-842 1167,-842 1167,-880"/>
<text text-anchor="middle" x="1077.5" y="-864.8" font-family="Times,serif" font-size="14.00">INF1316</text>
<text text-anchor="middle" x="1077.5" y="-849.8" font-family="Times,serif" font-size="14.00">Sistemas Operacionais</text>
</g>
<!-- INF1316&#45;&gt;INF1317 -->
<g id="edge26" class="edge">
<title>INF1316&#45;&gt;INF1317</title>
<path fill="none" stroke="black" d="M1167.02,-861C1214.44,-861 1273.15,-861 1322.83,-861"/>
<polygon fill="black" stroke="black" points="1322.96,-864.5 1332.96,-861 1322.96,-857.5 1322.96,-864.5"/>
</g>
<!-- INF1629 -->
<g id="node22" class="node">
<title>INF1629</title>
<polygon fill="none" stroke="black" points="1221,-674 934,-674 934,-636 1221,-636 1221,-674"/>
<text text-anchor="middle" x="1077.5" y="-658.8" font-family="Times,serif" font-size="14.00">INF1629</text>
<text text-anchor="middle" x="1077.5" y="-643.8" font-family="Times,serif" font-size="14.00">Princípios de Engenharia de Software</text>
</g>
<!-- INF1636 -->
<g id="node23" class="node">
<title>INF1636</title>
<polygon fill="none" stroke="black" points="1200.5,-730 954.5,-730 954.5,-692 1200.5,-692 1200.5,-730"/>
<text text-anchor="middle" x="1077.5" y="-714.8" font-family="Times,serif" font-size="14.00">INF1636</text>
<text text-anchor="middle" x="1077.5" y="-699.8" font-family="Times,serif" font-size="14.00">Programação Orientada Objetos</text>
</g>
<!-- INF1636&#45;&gt;INF1028 -->
<g id="edge25" class="edge">
<title>INF1636&#45;&gt;INF1028</title>
<path fill="none" stroke="black" d="M1200.56,-711C1232.9,-711 1267.87,-711 1300.46,-711"/>
<polygon fill="black" stroke="black" points="1300.5,-714.5 1310.5,-711 1300.5,-707.5 1300.5,-714.5"/>
</g>
<!-- INF1383 -->
<g id="node24" class="node">
<title>INF1383</title>
<polygon fill="none" stroke="black" points="822,-777 691,-777 691,-739 822,-739 822,-777"/>
<text text-anchor="middle" x="756.5" y="-761.8" font-family="Times,serif" font-size="14.00">INF1383</text>
<text text-anchor="middle" x="756.5" y="-746.8" font-family="Times,serif" font-size="14.00">Banco de Dados</text>
</g>
<!-- INF1383&#45;&gt;INF1028 -->
<g id="edge24" class="edge">
<title>INF1383&#45;&gt;INF1028</title>
<path fill="none" stroke="black" d="M822.04,-757.69C914.72,-756.73 1090.81,-753.04 1240,-739 1260.65,-737.06 1282.5,-734.37 1303.7,-731.43"/>
<polygon fill="black" stroke="black" points="1304.3,-734.88 1313.71,-730.02 1303.32,-727.95 1304.3,-734.88"/>
</g>
<!-- INF1631 -->
<g id="node25" class="node">
<title>INF1631</title>
<polygon fill="none" stroke="black" points="839.5,-1009 673.5,-1009 673.5,-971 839.5,-971 839.5,-1009"/>
<text text-anchor="middle" x="756.5" y="-993.8" font-family="Times,serif" font-size="14.00">INF1631</text>
<text text-anchor="middle" x="756.5" y="-978.8" font-family="Times,serif" font-size="14.00">Estruturas Discretas</text>
</g>
<!-- INF1631&#45;&gt;INF1721 -->
<g id="edge28" class="edge">
<title>INF1631&#45;&gt;INF1721</title>
<path fill="none" stroke="black" d="M839.66,-984.6C964.04,-976.44 1199.63,-960.96 1331.66,-952.29"/>
<polygon fill="black" stroke="black" points="1332.01,-955.78 1341.76,-951.63 1331.55,-948.79 1332.01,-955.78"/>
</g>
<!-- INF1010 -->
<g id="node26" class="node">
<title>INF1010</title>
<polygon fill="none" stroke="black" points="879,-909 634,-909 634,-871 879,-871 879,-909"/>
<text text-anchor="middle" x="756.5" y="-893.8" font-family="Times,serif" font-size="14.00">INF1010</text>
<text text-anchor="middle" x="756.5" y="-878.8" font-family="Times,serif" font-size="14.00">Estruturas de Dados Avançadas</text>
</g>
<!-- INF1010&#45;&gt;INF1721 -->
<g id="edge27" class="edge">
<title>INF1010&#45;&gt;INF1721</title>
<path fill="none" stroke="black" d="M879.22,-900.17C1009.18,-911.04 1212.44,-928.02 1331.54,-937.98"/>
<polygon fill="black" stroke="black" points="1331.48,-941.49 1341.74,-938.83 1332.07,-934.51 1331.48,-941.49"/>
</g>
<!-- INF1301 -->
<g id="node27" class="node">
<title>INF1301</title>
<polygon fill="none" stroke="black" points="844.5,-698 668.5,-698 668.5,-660 844.5,-660 844.5,-698"/>
<text text-anchor="middle" x="756.5" y="-682.8" font-family="Times,serif" font-size="14.00">INF1301</text>
<text text-anchor="middle" x="756.5" y="-667.8" font-family="Times,serif" font-size="14.00">Programação Modular</text>
</g>
<!-- INF1301&#45;&gt;INF1027 -->
<g id="edge13" class="edge">
<title>INF1301&#45;&gt;INF1027</title>
<path fill="none" stroke="black" d="M808.72,-659.96C839.25,-649.15 878.97,-636.02 915,-627 926.87,-624.03 939.31,-621.27 951.79,-618.72"/>
<polygon fill="black" stroke="black" points="952.68,-622.12 961.8,-616.73 951.31,-615.25 952.68,-622.12"/>
</g>
<!-- INF1301&#45;&gt;INF1629 -->
<g id="edge16" class="edge">
<title>INF1301&#45;&gt;INF1629</title>
<path fill="none" stroke="black" d="M844.67,-672.44C869.23,-670.59 896.7,-668.53 923.89,-666.48"/>
<polygon fill="black" stroke="black" points="924.19,-669.97 933.9,-665.73 923.66,-662.99 924.19,-669.97"/>
</g>
<!-- INF1301&#45;&gt;INF1636 -->
<g id="edge17" class="edge">
<title>INF1301&#45;&gt;INF1636</title>
<path fill="none" stroke="black" d="M844.67,-687.74C875.35,-690.82 910.55,-694.35 944.11,-697.72"/>
<polygon fill="black" stroke="black" points="944.16,-701.24 954.46,-698.76 944.86,-694.28 944.16,-701.24"/>
</g>
<!-- INF1018 -->
<g id="node28" class="node">
<title>INF1018</title>
<polygon fill="none" stroke="black" points="822.5,-845 690.5,-845 690.5,-807 822.5,-807 822.5,-845"/>
<text text-anchor="middle" x="756.5" y="-829.8" font-family="Times,serif" font-size="14.00">INF1018</text>
<text text-anchor="middle" x="756.5" y="-814.8" font-family="Times,serif" font-size="14.00">Software Básico</text>
</g>
<!-- INF1018&#45;&gt;INF1029 -->
<g id="edge14" class="edge">
<title>INF1018&#45;&gt;INF1029</title>
<path fill="none" stroke="black" d="M822.82,-821.7C846.87,-820.12 875.38,-818.24 904.44,-816.33"/>
<polygon fill="black" stroke="black" points="904.99,-819.8 914.73,-815.65 904.53,-812.81 904.99,-819.8"/>
</g>
<!-- INF1018&#45;&gt;INF1316 -->
<g id="edge15" class="edge">
<title>INF1018&#45;&gt;INF1316</title>
<path fill="none" stroke="black" d="M822.82,-833.17C867.51,-838.07 927.56,-844.66 978.02,-850.2"/>
<polygon fill="black" stroke="black" points="977.66,-853.68 987.98,-851.29 978.42,-846.72 977.66,-853.68"/>
</g>
<!-- MAT1162 -->
<g id="node29" class="node">
<title>MAT1162</title>
<polygon fill="none" stroke="black" points="861.5,-486 651.5,-486 651.5,-448 861.5,-448 861.5,-486"/>
<text text-anchor="middle" x="756.5" y="-470.8" font-family="Times,serif" font-size="14.00">MAT1162</text>
<text text-anchor="middle" x="756.5" y="-455.8" font-family="Times,serif" font-size="14.00">Cálculo a Várias Variáveis I</text>
</g>
<!-- CRE1100 -->
<g id="node30" class="node">
<title>CRE1100</title>
<polygon fill="none" stroke="black" points="580,-374 314,-374 314,-336 580,-336 580,-374"/>
<text text-anchor="middle" x="447" y="-358.8" font-family="Times,serif" font-size="14.00">CRE1100</text>
<text text-anchor="middle" x="447" y="-343.8" font-family="Times,serif" font-size="14.00">O Humano e o Fenômeno Religioso</text>
</g>
<!-- CRE1100&#45;&gt;CRE0710 -->
<g id="edge12" class="edge">
<title>CRE1100&#45;&gt;CRE0710</title>
<path fill="none" stroke="black" d="M580.14,-355C694.37,-355 857.62,-355 965.28,-355"/>
<polygon fill="black" stroke="black" points="965.53,-358.5 975.53,-355 965.52,-351.5 965.53,-358.5"/>
</g>
<!-- INF0380 -->
<g id="node31" class="node">
<title>INF0380</title>
<polygon fill="none" stroke="black" points="598,-1107 296,-1107 296,-1069 598,-1069 598,-1107"/>
<text text-anchor="middle" x="447" y="-1091.8" font-family="Times,serif" font-size="14.00">INF0380</text>
<text text-anchor="middle" x="447" y="-1076.8" font-family="Times,serif" font-size="14.00">Optativas de Comp e Produção de Texto</text>
</g>
<!-- INF1403 -->
<g id="node32" class="node">
<title>INF1403</title>
<polygon fill="none" stroke="black" points="560,-1163 334,-1163 334,-1125 560,-1125 560,-1163"/>
<text text-anchor="middle" x="447" y="-1147.8" font-family="Times,serif" font-size="14.00">INF1403</text>
<text text-anchor="middle" x="447" y="-1132.8" font-family="Times,serif" font-size="14.00">Intr Int Humano&#45;Computador</text>
</g>
<!-- INF1007 -->
<g id="node33" class="node">
<title>INF1007</title>
<polygon fill="none" stroke="black" points="510,-845 384,-845 384,-807 510,-807 510,-845"/>
<text text-anchor="middle" x="447" y="-829.8" font-family="Times,serif" font-size="14.00">INF1007</text>
<text text-anchor="middle" x="447" y="-814.8" font-family="Times,serif" font-size="14.00">Programação II</text>
</g>
<!-- INF1007&#45;&gt;INF1022 -->
<g id="edge21" class="edge">
<title>INF1007&#45;&gt;INF1022</title>
<path fill="none" stroke="black" d="M478.59,-845.17C514.41,-866.64 576.2,-900.68 634,-918 753.69,-953.86 1097.46,-987.75 1290.95,-1004.71"/>
<polygon fill="black" stroke="black" points="1290.93,-1008.22 1301.19,-1005.6 1291.54,-1001.24 1290.93,-1008.22"/>
</g>
<!-- INF1007&#45;&gt;INF1383 -->
<g id="edge4" class="edge">
<title>INF1007&#45;&gt;INF1383</title>
<path fill="none" stroke="black" d="M510.23,-812.24C559.61,-801.32 628.78,-786.02 681.09,-774.46"/>
<polygon fill="black" stroke="black" points="681.97,-777.84 690.98,-772.27 680.46,-771.01 681.97,-777.84"/>
</g>
<!-- INF1007&#45;&gt;INF1631 -->
<g id="edge6" class="edge">
<title>INF1007&#45;&gt;INF1631</title>
<path fill="none" stroke="black" d="M469.61,-845.08C502.75,-873.4 569.12,-926.5 634,-957 643.37,-961.4 653.43,-965.31 663.61,-968.75"/>
<polygon fill="black" stroke="black" points="662.79,-972.16 673.38,-971.9 664.94,-965.5 662.79,-972.16"/>
</g>
<!-- INF1007&#45;&gt;INF1010 -->
<g id="edge8" class="edge">
<title>INF1007&#45;&gt;INF1010</title>
<path fill="none" stroke="black" d="M510.23,-838.95C551.51,-847.54 606.65,-859.02 654.18,-868.91"/>
<polygon fill="black" stroke="black" points="653.7,-872.39 664.2,-871 655.13,-865.53 653.7,-872.39"/>
</g>
<!-- INF1007&#45;&gt;INF1301 -->
<g id="edge9" class="edge">
<title>INF1007&#45;&gt;INF1301</title>
<path fill="none" stroke="black" d="M482.9,-806.94C519.97,-786.93 580.5,-754.99 634,-730 654.67,-720.35 677.67,-710.48 698.05,-702.02"/>
<polygon fill="black" stroke="black" points="699.6,-705.17 707.51,-698.12 696.93,-698.7 699.6,-705.17"/>
</g>
<!-- INF1007&#45;&gt;INF1018 -->
<g id="edge10" class="edge">
<title>INF1007&#45;&gt;INF1018</title>
<path fill="none" stroke="black" d="M510.23,-826C559.34,-826 628.04,-826 680.24,-826"/>
<polygon fill="black" stroke="black" points="680.45,-829.5 690.45,-826 680.45,-822.5 680.45,-829.5"/>
</g>
<!-- MAT1158 -->
<g id="node34" class="node">
<title>MAT1158</title>
<polygon fill="none" stroke="black" points="544,-486 350,-486 350,-448 544,-448 544,-486"/>
<text text-anchor="middle" x="447" y="-470.8" font-family="Times,serif" font-size="14.00">MAT1158</text>
<text text-anchor="middle" x="447" y="-455.8" font-family="Times,serif" font-size="14.00">Cálculo a uma Variável B</text>
</g>
<!-- MAT1158&#45;&gt;INF0377 -->
<g id="edge20" class="edge">
<title>MAT1158&#45;&gt;INF0377</title>
<path fill="none" stroke="black" d="M544.3,-483.4C573.08,-487.79 604.75,-492.11 634,-495 851.9,-516.56 1104.72,-526 1265.34,-530.05"/>
<polygon fill="black" stroke="black" points="1265.7,-533.56 1275.79,-530.31 1265.88,-526.56 1265.7,-533.56"/>
</g>
<!-- MAT1158&#45;&gt;MAT1162 -->
<g id="edge11" class="edge">
<title>MAT1158&#45;&gt;MAT1162</title>
<path fill="none" stroke="black" d="M544.03,-467C574.8,-467 609.17,-467 641.12,-467"/>
<polygon fill="black" stroke="black" points="641.4,-470.5 651.4,-467 641.4,-463.5 641.4,-470.5"/>
</g>
<!-- MAT1250 -->
<g id="node35" class="node">
<title>MAT1250</title>
<polygon fill="none" stroke="black" points="515.5,-430 378.5,-430 378.5,-392 515.5,-392 515.5,-430"/>
<text text-anchor="middle" x="447" y="-414.8" font-family="Times,serif" font-size="14.00">MAT1250</text>
<text text-anchor="middle" x="447" y="-399.8" font-family="Times,serif" font-size="14.00">Álgebra Linear A</text>
</g>
<!-- INF1025 -->
<g id="node36" class="node">
<title>INF1025</title>
<polygon fill="none" stroke="black" points="233,-723 27,-723 27,-685 233,-685 233,-723"/>
<text text-anchor="middle" x="130" y="-707.8" font-family="Times,serif" font-size="14.00">INF1025</text>
<text text-anchor="middle" x="130" y="-692.8" font-family="Times,serif" font-size="14.00">Introdução à Programação</text>
</g>
<!-- INF1025&#45;&gt;INF0377 -->
<g id="edge19" class="edge">
<title>INF1025&#45;&gt;INF0377</title>
<path fill="none" stroke="black" d="M225.62,-684.99C372.54,-656.13 664.72,-601.44 915,-571 1032,-556.77 1164.72,-547.11 1265.78,-541.09"/>
<polygon fill="black" stroke="black" points="1265.99,-544.58 1275.77,-540.5 1265.58,-537.59 1265.99,-544.58"/>
</g>
<!-- INF1025&#45;&gt;INF1007 -->
<g id="edge1" class="edge">
<title>INF1025&#45;&gt;INF1007</title>
<path fill="none" stroke="black" d="M180.22,-723.06C236.19,-744.74 327.54,-780.12 387.21,-803.23"/>
<polygon fill="black" stroke="black" points="386.28,-806.62 396.87,-806.97 388.81,-800.1 386.28,-806.62"/>
</g>
<!-- INF1012 -->
<g id="node37" class="node">
<title>INF1012</title>
<polygon fill="none" stroke="black" points="215,-533 45,-533 45,-495 215,-495 215,-533"/>
<text text-anchor="middle" x="130" y="-517.8" font-family="Times,serif" font-size="14.00">INF1012</text>
<text text-anchor="middle" x="130" y="-502.8" font-family="Times,serif" font-size="14.00">Modelagem de Dados</text>
</g>
<!-- INF1012&#45;&gt;INF1383 -->
<g id="edge5" class="edge">
<title>INF1012&#45;&gt;INF1383</title>
<path fill="none" stroke="black" d="M179.74,-533.04C293.22,-577.38 574.67,-687.35 697.08,-735.18"/>
<polygon fill="black" stroke="black" points="696.08,-738.54 706.67,-738.92 698.63,-732.02 696.08,-738.54"/>
</g>
<!-- INF1009 -->
<g id="node38" class="node">
<title>INF1009</title>
<polygon fill="none" stroke="black" points="226.5,-1060 33.5,-1060 33.5,-1022 226.5,-1022 226.5,-1060"/>
<text text-anchor="middle" x="130" y="-1044.8" font-family="Times,serif" font-size="14.00">INF1009</text>
<text text-anchor="middle" x="130" y="-1029.8" font-family="Times,serif" font-size="14.00">Lógica para Computação</text>
</g>
<!-- INF1009&#45;&gt;INF1022 -->
<g id="edge22" class="edge">
<title>INF1009&#45;&gt;INF1022</title>
<path fill="none" stroke="black" d="M226.6,-1039.16C453.99,-1034.77 1027.74,-1023.71 1291.29,-1018.63"/>
<polygon fill="black" stroke="black" points="1291.37,-1022.13 1301.3,-1018.43 1291.24,-1015.13 1291.37,-1022.13"/>
</g>
<!-- INF1031 -->
<g id="node39" class="node">
<title>INF1031</title>
<polygon fill="none" stroke="black" points="230,-1116 30,-1116 30,-1078 230,-1078 230,-1116"/>
<text text-anchor="middle" x="130" y="-1100.8" font-family="Times,serif" font-size="14.00">INF1031</text>
<text text-anchor="middle" x="130" y="-1085.8" font-family="Times,serif" font-size="14.00">Introdução à Computação</text>
</g>
<!-- MAT1157 -->
<g id="node40" class="node">
<title>MAT1157</title>
<polygon fill="none" stroke="black" points="231.5,-454 28.5,-454 28.5,-416 231.5,-416 231.5,-454"/>
<text text-anchor="middle" x="130" y="-438.8" font-family="Times,serif" font-size="14.00">MAT1157</text>
<text text-anchor="middle" x="130" y="-423.8" font-family="Times,serif" font-size="14.00">Cálculo de uma Variável A</text>
</g>
<!-- MAT1157&#45;&gt;MAT1158 -->
<g id="edge2" class="edge">
<title>MAT1157&#45;&gt;MAT1158</title>
<path fill="none" stroke="black" d="M231.53,-445.21C266.03,-448.72 304.74,-452.65 339.68,-456.2"/>
<polygon fill="black" stroke="black" points="339.61,-459.71 349.91,-457.24 340.31,-452.75 339.61,-459.71"/>
</g>
<!-- MAT1157&#45;&gt;MAT1250 -->
<g id="edge3" class="edge">
<title>MAT1157&#45;&gt;MAT1250</title>
<path fill="none" stroke="black" d="M231.53,-427.34C275.78,-423.97 326.96,-420.07 368.22,-416.93"/>
<polygon fill="black" stroke="black" points="368.51,-420.41 378.22,-416.16 367.98,-413.43 368.51,-420.41"/>
</g>
<!-- MAT1320 -->
<g id="node41" class="node">
<title>MAT1320</title>
<polygon fill="none" stroke="black" points="260,-1004 0,-1004 0,-966 260,-966 260,-1004"/>
<text text-anchor="middle" x="130" y="-988.8" font-family="Times,serif" font-size="14.00">MAT1320</text>
<text text-anchor="middle" x="130" y="-973.8" font-family="Times,serif" font-size="14.00">Introdução à Matemática Discreta</text>
</g>
<!-- MAT1320&#45;&gt;INF1631 -->
<g id="edge7" class="edge">
<title>MAT1320&#45;&gt;INF1631</title>
<path fill="none" stroke="black" d="M260.02,-986.03C380.25,-987 556.58,-988.41 663.26,-989.26"/>
<polygon fill="black" stroke="black" points="663.33,-992.76 673.36,-989.34 663.39,-985.76 663.33,-992.76"/>
</g>
</g>
</svg>
